<?xml version="1.0" encoding="UTF-8"?>
<svg version="1.1" xmlns="http://www.w3.org/2000/svg" width="512" height="512">
<path d="M0 0 C6.28037273 7.32933535 11.26229923 15.44371873 16.02752686 23.80923462 C17.84852975 27.00401704 19.69679612 30.18299877 21.54296875 33.36328125 C21.91717957 34.00901596 22.29139038 34.65475067 22.67694092 35.3200531 C26.29920042 41.5528169 30.07107782 47.68911308 33.875 53.8125 C39.84286057 63.43521183 45.67403687 73.12899256 51.4375 82.875 C57.4463847 93.03312894 63.49050385 103.16715916 69.625 113.25 C70.14648117 114.10733734 70.14648117 114.10733734 70.67849731 114.98199463 C73.1166783 118.98941122 75.55793709 122.99494816 78 127 C80.79385614 131.58200264 83.58610009 136.16497869 86.375 140.75 C86.72125427 141.31909088 87.06750854 141.88818176 87.42425537 142.47451782 C93.68686828 152.77405033 99.8396477 163.13706763 105.97698975 173.51159668 C111.22363847 182.37670544 116.54889499 191.18167939 122.01098633 199.91625977 C126.93998099 207.83158616 131.68947061 215.85041771 136.4375 223.875 C143.60941321 235.99440913 150.86304246 248.05866612 158.21044922 260.07275391 C161.54279482 265.52361663 164.86783266 270.97890946 168.1875 276.4375 C168.53807465 277.0137915 168.88864929 277.59008301 169.24984741 278.18383789 C175.63597829 288.68855116 181.9125815 299.25665699 188.17227173 309.83706665 C192.49860034 317.1469955 196.83137769 324.44713006 201.375 331.625 C205.26726304 337.79781232 209.1019595 344.00348693 212.875 350.25 C213.42333496 351.13768066 213.97166992 352.02536133 214.53662109 352.93994141 C220.11699316 362.25435299 223.76639792 371.60312129 223.5 382.5625 C223.48791504 383.37895996 223.47583008 384.19541992 223.46337891 385.03662109 C223.07745477 396.81783238 218.35648108 405.93871878 210.625 414.6875 C195.67514084 427.85761402 180.90379822 429.30985036 161.54101562 429.25396729 C159.7902946 429.2562751 158.03957455 429.25945377 156.28885651 429.26342177 C151.50484213 429.27173434 146.72090804 429.26766065 141.93689346 429.26144934 C136.76708699 429.25691132 131.597294 429.26391529 126.42749023 429.26940918 C116.310421 429.27829043 106.19338149 429.27638682 96.07631111 429.2705839 C87.85205975 429.26606243 79.6278167 429.26545661 71.40356445 429.26763153 C70.23190184 429.267938 69.06023923 429.26824446 67.85307169 429.26856022 C65.47267087 429.26919968 63.09227005 429.26984811 60.71186924 429.2705054 C38.40429907 429.27620498 16.09674536 429.26965663 -6.21082211 429.25890467 C-25.34107714 429.2499695 -44.4713079 429.25152164 -63.6015625 429.26074219 C-85.83071543 429.27145138 -108.05985395 429.27565569 -130.28900909 429.26951766 C-132.66052754 429.26888058 -135.032046 429.26825184 -137.40356445 429.26763153 C-138.57031881 429.26732298 -139.73707316 429.26701443 -140.93918371 429.26669653 C-149.15110972 429.26497154 -157.36302658 429.26788047 -165.57495117 429.27259064 C-175.58602353 429.27820668 -185.59706454 429.27666779 -195.60813332 429.26602915 C-200.71339264 429.2607822 -205.81859973 429.25869906 -210.92385864 429.26532745 C-215.60191337 429.27130922 -220.27986771 429.26797515 -224.9579134 429.25737235 C-226.6455084 429.25514775 -228.33311197 429.25625336 -230.02070141 429.26112393 C-253.65177565 429.32406665 -253.65177565 429.32406665 -264.375 423.6875 C-265.49648438 423.11386719 -266.61796875 422.54023438 -267.7734375 421.94921875 C-278.09676353 415.71273002 -285.23080771 405.74888218 -288.53051758 394.13232422 C-289.3416826 390.4481249 -289.26809632 386.75951159 -289.3125 383 C-289.34150391 382.21238281 -289.37050781 381.42476563 -289.40039062 380.61328125 C-289.53335101 367.91045043 -283.45589519 357.62064255 -277.0625 347.0625 C-276.29327881 345.77303665 -275.52489905 344.483071 -274.75732422 343.19262695 C-269.96086786 335.15225342 -265.05938474 327.17693033 -260.09375 319.23999023 C-255.12516531 311.27514754 -250.34191737 303.20410512 -245.5625 295.125 C-238.39085187 283.00543644 -231.13695478 270.94132936 -223.78955078 258.92724609 C-220.45720522 253.47638344 -217.13214189 248.02110597 -213.8125 242.5625 C-213.46092834 241.98454681 -213.10935669 241.40659363 -212.74713135 240.81112671 C-206.4282014 230.41649595 -200.21740218 219.95944837 -194.02383423 209.48977661 C-188.77690953 200.62421062 -183.45138812 191.81877334 -177.98901367 183.08374023 C-173.06001901 175.16841384 -168.31052939 167.14958229 -163.5625 159.125 C-156.39058679 147.00559087 -149.13695754 134.94133388 -141.78955078 122.92724609 C-138.45720522 117.47638344 -135.13214189 112.02110597 -131.8125 106.5625 C-131.46092834 105.98454681 -131.10935669 105.40659363 -130.74713135 104.81112671 C-124.42858633 94.41712916 -118.21872075 83.96041285 -112.02484131 73.49179077 C-106.75635835 64.59139775 -101.42321698 55.74062626 -95.93408203 46.97387695 C-92.70911633 41.80810173 -89.55853754 36.60304615 -86.44921875 31.3671875 C-86.05115524 30.69815399 -85.65309174 30.02912048 -85.2429657 29.33981323 C-83.27228374 26.02692299 -81.30767785 22.710701 -79.35327148 19.38818359 C-70.59443248 4.58618528 -61.52948611 -6.89430334 -44.33203125 -11.75390625 C-28.09483046 -15.23800197 -12.51364347 -10.76518771 0 0 Z M-43.85839844 27.46655273 C-44.72513184 28.93523804 -44.72513184 28.93523804 -45.609375 30.43359375 C-46.60396729 32.09696777 -46.60396729 32.09696777 -47.61865234 33.79394531 C-48.32922139 35.00839344 -49.0396671 36.22291374 -49.75 37.4375 C-50.50218643 38.70353198 -51.25562738 39.96881937 -52.01025391 41.23339844 C-53.57508644 43.85771559 -55.1344871 46.48514943 -56.69042969 49.11474609 C-60.19600727 55.02717916 -63.79259681 60.88389911 -67.375 66.75 C-73.99496818 77.61991972 -80.49697989 88.55782387 -86.97698975 99.51159668 C-92.22363847 108.37670544 -97.54889499 117.18167939 -103.01098633 125.91625977 C-107.93998099 133.83158616 -112.68947061 141.85041771 -117.4375 149.875 C-124.60941321 161.99440913 -131.86304246 174.05866612 -139.21044922 186.07275391 C-142.54279478 191.52361656 -145.86785811 196.97889403 -149.1875 202.4375 C-149.53907166 203.01545319 -149.89064331 203.59340637 -150.25286865 204.18887329 C-156.5717986 214.58350405 -162.78259782 225.04055163 -168.97616577 235.51022339 C-174.22309047 244.37578938 -179.54861188 253.18122666 -185.01098633 261.91625977 C-189.93998099 269.83158616 -194.68947061 277.85041771 -199.4375 285.875 C-206.60175903 297.98147477 -213.84814455 310.03240932 -221.18847656 322.03320312 C-224.99845033 328.27293375 -228.78684183 334.52583208 -232.57769775 340.77719116 C-236.42462195 347.12096665 -240.27822775 353.46033052 -244.15625 359.78515625 C-244.80529297 360.84541016 -245.45433594 361.90566406 -246.12304688 362.99804688 C-247.34578751 364.99438408 -248.57092949 366.98925308 -249.79882812 368.98242188 C-250.6099707 370.30790039 -250.6099707 370.30790039 -251.4375 371.66015625 C-252.14712891 372.81463257 -252.14712891 372.81463257 -252.87109375 373.99243164 C-255.14988113 378.04486862 -255.31607212 381.41695419 -255 386 C-253.17586554 390.22431139 -251.09750472 392.00612193 -247 394 C-243.55358119 394.44862089 -243.55358119 394.44862089 -239.7144928 394.37752342 C-238.98759762 394.38188374 -238.26070245 394.38624407 -237.51178014 394.39073652 C-235.06894399 394.40171029 -232.6266702 394.39126112 -230.18383789 394.38095093 C-228.41766858 394.38440666 -226.65150142 394.38917065 -224.88533878 394.39513266 C-220.02635653 394.40768398 -215.1675505 394.40145351 -210.30856752 394.39217401 C-205.07059807 394.38540075 -199.83265943 394.39585617 -194.59469604 394.40411377 C-184.33128184 394.41747173 -174.06793336 394.41456418 -163.80451655 394.40587585 C-155.46514136 394.39910782 -147.12578462 394.39817876 -138.78640747 394.4014473 C-137.60067392 394.401907 -136.41494038 394.40236669 -135.19327551 394.40284032 C-132.78467583 394.40379947 -130.37607616 394.40477211 -127.96747649 394.4057581 C-105.36828307 394.41431804 -82.76912612 394.40446839 -60.16993868 394.388357 C-40.76789658 394.37495328 -21.36590832 394.3772812 -1.96386719 394.39111328 C20.55303236 394.40715843 43.06989992 394.41349401 65.58680439 394.40427649 C67.98667208 394.40332082 70.38653977 394.40237771 72.78640747 394.4014473 C74.55769851 394.40075306 74.55769851 394.40075306 76.36477321 394.40004479 C84.69663028 394.3974517 93.02846711 394.40183276 101.36032104 394.40888596 C111.51048315 394.41728932 121.66057564 394.41504534 131.81072974 394.39904372 C136.99205467 394.39114533 142.17326342 394.38809608 147.35458755 394.39799118 C152.09428112 394.40690615 156.83375039 394.40205818 161.5734235 394.38605852 C163.29138438 394.38269712 165.00936406 394.38443513 166.72731292 394.39168589 C169.05664498 394.4007657 171.38520168 394.39149581 173.7144928 394.37752342 C175.01004624 394.37703637 176.30559969 394.37654931 177.64041233 394.37604749 C182.28963897 393.85564731 184.89569483 392.37086159 187.8125 388.75 C189.42073337 385.02567009 189.58931294 383.05971139 189 379 C184.7383608 369.88152059 179.08748239 361.2704133 173.9375 352.625 C173.51726562 351.91802979 173.09703125 351.21105957 172.6640625 350.48266602 C167.19750674 341.28787781 161.65592366 332.14746854 155.98510742 323.0769043 C151.12186635 315.26670472 146.43425382 307.35573674 141.75 299.4375 C135.67822045 289.17546495 129.57280572 278.93648721 123.375 268.75 C122.8539267 267.89334244 122.8539267 267.89334244 122.32232666 267.01937866 C119.88387037 263.01150469 117.44234082 259.00550764 115 255 C112.20614386 250.41799736 109.41389991 245.83502131 106.625 241.25 C106.27874573 240.68090912 105.93249146 240.11181824 105.57574463 239.52548218 C99.31313172 229.22594967 93.1603523 218.86293237 87.02301025 208.48840332 C81.77636153 199.62329456 76.45110501 190.81832061 70.98901367 182.08374023 C66.06001901 174.16841384 61.31052939 166.14958229 56.5625 158.125 C49.39058679 146.00559087 42.13695754 133.94133388 34.78955078 121.92724609 C31.45720522 116.47638344 28.13214189 111.02110597 24.8125 105.5625 C24.46092834 104.98454681 24.10935669 104.40659363 23.74713135 103.81112671 C17.84520743 94.10247027 12.03566969 84.34077905 6.25 74.5625 C-0.13702554 63.76795201 -6.60191499 53.03174679 -13.26171875 42.40234375 C-15.01369544 39.60439274 -16.72639358 36.79011541 -18.39453125 33.94140625 C-18.75587158 33.33063232 -19.11721191 32.7198584 -19.48950195 32.09057617 C-20.40779958 30.53153354 -21.31396493 28.96536074 -22.21875 27.3984375 C-24.61909986 24.16638747 -27.07624633 22.37163423 -31.0625 21.6015625 C-32.0215625 21.61316406 -32.0215625 21.61316406 -33 21.625 C-33.639375 21.61726563 -34.27875 21.60953125 -34.9375 21.6015625 C-38.90295771 22.36761683 -41.4503793 24.27051788 -43.85839844 27.46655273 Z " fill="#000000" transform="translate(289,48)"/>
<path d="M0 0 C5.50292991 3.46210822 8.67353969 6.97021888 10.3125 13.3125 C10.59091181 16.3663871 10.56758156 19.39638695 10.52734375 22.4609375 C10.5208934 23.40246674 10.51444305 24.34399597 10.50779724 25.3140564 C10.34154185 39.73847357 9.61908293 54.15519642 8.98010254 68.5647583 C8.70387618 74.80070477 8.43306609 81.03687956 8.16651535 87.27324677 C8.09991879 88.8221351 8.03252161 90.37098923 7.96431351 91.91980743 C7.57639916 100.74239272 7.26491478 109.55993928 7.09716797 118.38964844 C7.08013164 119.21302137 7.0630953 120.03639431 7.04554272 120.88471794 C6.96402595 124.82663835 6.8951589 128.76782673 6.85218811 132.71035767 C6.73684596 139.78858799 6.56725736 145.91565384 3.3125 152.3125 C1.55859375 153.93359375 1.55859375 153.93359375 -0.25 154.75 C-2.07408842 155.5791311 -3.8953489 156.41642445 -5.6875 157.3125 C-8.10093878 157.4626182 -10.5195643 157.5340537 -12.9375 157.5625 C-14.24203125 157.58828125 -15.5465625 157.6140625 -16.890625 157.640625 C-22.1096929 157.18959444 -25.35765464 155.67828713 -29 151.9375 C-31.59441861 147.90173772 -31.80471101 143.931613 -31.95288086 139.21411133 C-32.00325249 137.71219238 -32.00325249 137.71219238 -32.05464172 136.17993164 C-32.08688339 135.09574951 -32.11912506 134.01156738 -32.15234375 132.89453125 C-32.20874275 131.1767749 -32.20874275 131.1767749 -32.26628113 129.42431641 C-32.38945276 125.65798469 -32.50717542 121.89150244 -32.625 118.125 C-32.77406228 113.51405734 -32.92528909 108.90318855 -33.07796478 104.29236412 C-33.12249159 102.94711479 -33.16686824 101.60186048 -33.21109772 100.25660133 C-33.51972186 90.88799027 -33.86803672 81.52169209 -34.26171875 72.15625 C-34.30818039 71.04448898 -34.35464203 69.93272797 -34.4025116 68.78727722 C-34.5800909 64.56093664 -34.75856157 60.33466749 -34.94699097 56.10879517 C-35.42664672 45.35070597 -35.80068442 34.59275328 -35.9296875 23.82421875 C-35.95153107 22.87376175 -35.97337463 21.92330475 -35.99588013 20.94404602 C-36.0321624 14.51808056 -35.36859985 9.44468538 -31.0390625 4.38671875 C-30.46929687 3.92910156 -29.89953125 3.47148437 -29.3125 3 C-28.74789062 2.52949219 -28.18328125 2.05898437 -27.6015625 1.57421875 C-20.33844733 -3.21350819 -7.90270155 -3.73940092 0 0 Z " fill="#000000" transform="translate(268.6875,174.6875)"/>
<path d="M0 0 C5.71797681 3.26217908 9.63096364 7.42706113 12.0546875 13.6953125 C13.70476308 20.77794462 13.75558733 28.72638001 9.96484375 35.09375 C5.36969269 40.93048783 0.10252687 45.30972798 -7.41796875 46.24609375 C-15.17943612 46.40680623 -21.1153597 45.60803089 -27.4375 40.875 C-32.9417752 35.405055 -35.05562267 29.75741951 -35.8125 22.0625 C-35.62600515 15.67194314 -33.09218601 9.87804096 -29.0625 5 C-20.1797646 -2.1907858 -10.87121241 -5.09282023 0 0 Z " fill="#000000" transform="translate(267.4375,355.125)"/>
</svg>
