<?xml version="1.0" encoding="UTF-8"?>
<svg version="1.1" xmlns="http://www.w3.org/2000/svg" width="512" height="512">
<path d="M0 0 C0.63164062 0.4125 1.26328125 0.825 1.9140625 1.25 C2.60757813 1.6625 3.30109375 2.075 4.015625 2.5 C9.65326895 6.21619976 13.20042495 11.09032446 15.9140625 17.25 C16.27431279 19.24532725 16.61089593 21.24520546 16.9140625 23.25 C17.95860596 23.23428955 19.00314941 23.2185791 20.0793457 23.20239258 C23.95377902 23.14810303 27.82817869 23.1136537 31.70288086 23.08520508 C33.3800217 23.07011616 35.05712307 23.04964252 36.73413086 23.02368164 C39.14446754 22.98730189 41.55428269 22.97027514 43.96484375 22.95703125 C44.71494217 22.94154739 45.46504059 22.92606354 46.23786926 22.91011047 C51.42602957 22.90843224 51.42602957 22.90843224 53.62443542 24.44706726 C55.36424691 26.8793697 55.21680952 28.47949318 55.1015625 31.4375 C55.06095703 32.78908203 55.06095703 32.78908203 55.01953125 34.16796875 C54.98472656 34.85503906 54.94992187 35.54210938 54.9140625 36.25 C55.74154495 36.24111755 56.5690274 36.23223511 57.42158508 36.2230835 C65.2618056 36.14256931 73.10188507 36.08184985 80.94242573 36.04275131 C84.97229623 36.02197377 89.00182198 35.99383903 93.03149414 35.94824219 C96.92837547 35.90442938 100.82492752 35.88078917 104.72203636 35.87049103 C106.2006466 35.86316259 107.67924106 35.84885378 109.15770912 35.82707977 C122.73661128 35.63525127 133.46636548 38.21078091 143.9140625 47.25 C151.07037122 54.74904381 156.04511717 63.86486513 156.03431702 74.36260986 C156.03637901 75.91064804 156.03637901 75.91064804 156.03848267 77.48995972 C156.03488739 78.61636871 156.03129211 79.74277771 156.02758789 80.90332031 C156.02773392 82.09384003 156.02787994 83.28435974 156.0280304 84.51095581 C156.02745336 87.77096274 156.02244015 91.03092667 156.01545644 94.29092503 C156.00920258 97.699543 156.00861749 101.10816184 156.00743103 104.51678467 C156.00432371 110.96944884 155.99611839 117.42209605 155.98608154 123.87475276 C155.97490181 131.22174087 155.96940526 138.56872978 155.96438611 145.91572428 C155.95393529 161.02715896 155.93634743 176.13857779 155.9140625 191.25 C156.93773422 191.45170508 156.93773422 191.45170508 157.98208618 191.65748501 C159.3282753 191.92436674 159.3282753 191.92436674 160.70166016 192.19664001 C161.59035797 192.37236007 162.47905579 192.54808012 163.39468384 192.72912502 C166.39676072 193.3497966 169.33838794 194.111045 172.2890625 194.94140625 C173.37574219 195.24626953 174.46242188 195.55113281 175.58203125 195.86523438 C176.68160156 196.17783203 177.78117187 196.49042969 178.9140625 196.8125 C180.04457031 197.12896484 181.17507813 197.44542969 182.33984375 197.77148438 C190.63751288 200.11172519 190.63751288 200.11172519 192.9140625 201.25 C192.9965625 200.321875 193.0790625 199.39375 193.1640625 198.4375 C193.66841733 195.08422191 194.50657068 191.9173462 195.5390625 188.6875 C195.96058594 187.35525391 195.96058594 187.35525391 196.390625 185.99609375 C200.13924905 179.2389586 206.85889064 175.96683641 213.71484375 173.0078125 C214.55009079 172.63574677 215.38533783 172.26368103 216.24589539 171.88034058 C218.90127422 170.70056693 221.56358107 169.53749522 224.2265625 168.375 C225.96989108 167.60397162 227.71273382 166.83184377 229.45507812 166.05859375 C232.90516844 164.52889722 236.35977336 163.01010391 239.81762695 161.49804688 C243.22219751 160.0052802 246.60885763 158.4795595 249.98510742 156.92382812 C250.79445236 156.55401825 251.6037973 156.18420837 252.43766785 155.80319214 C253.95489142 155.1085032 255.4688596 154.40663847 256.97871399 153.69607544 C263.63613769 150.66423777 269.98118024 149.5338242 277.05859375 151.99609375 C281.96243303 154.48414694 285.19016993 158.07832229 286.9140625 163.25 C287.40395103 168.81545491 287.68220791 173.65680952 285.2265625 178.75 C281.45440848 182.82800435 277.59320292 185.61221315 272.546875 187.9140625 C270.96712891 188.63916016 270.96712891 188.63916016 269.35546875 189.37890625 C268.26105469 189.87261719 267.16664063 190.36632812 266.0390625 190.875 C265.01425781 191.34550781 263.98945313 191.81601563 262.93359375 192.30078125 C261.85722656 192.79191406 260.78085937 193.28304687 259.671875 193.7890625 C257.91593018 194.6385144 257.91593018 194.6385144 256.12451172 195.50512695 C252.90338451 196.96347372 249.74145819 197.80652482 246.30126953 198.61010742 C238.37897251 200.75127204 231.36770005 203.18048141 226.95770264 210.49475098 C222.57912289 219.99312947 220.48977676 230.4860893 218.16706467 240.62942886 C217.10413284 245.17068978 215.92980436 249.68279333 214.76196289 254.19799805 C213.29267456 259.90492164 211.83357961 265.61365968 210.41999817 271.33467102 C206.90777112 285.5429528 203.10846462 299.65230735 199.12109375 313.734375 C198.83722054 314.73712904 198.55334732 315.73988308 198.26087189 316.77302361 C196.84795436 321.75853407 195.43050245 326.74273962 194.01068115 331.72628784 C192.38091281 337.45132009 190.7680311 343.18100186 189.16064453 348.91235352 C188.90674957 349.81731473 188.65285461 350.72227594 188.39126587 351.65466022 C187.40757952 355.16185497 186.4243869 358.66918663 185.44264984 362.17692757 C183.28480012 369.88588817 181.12652877 377.59220642 178.83642578 385.26318359 C178.5422023 386.25593796 178.24797882 387.24869232 177.94483948 388.27153015 C177.4321178 389.99024801 176.91034072 391.70631123 176.37632751 393.41853333 C175.19848357 397.37149239 174.54363868 400.29048995 175.9140625 404.25 C177.38545539 406.40899328 177.38545539 406.40899328 179.2265625 408.4375 C187.06535211 418.07905026 188.8644043 429.09633307 187.9140625 441.25 C185.37763853 453.94661373 179.48295717 463.69373418 168.9140625 471.25 C157.52854583 477.46729433 145.36676417 479.20073443 132.6015625 476.56640625 C122.59830614 473.14199605 112.77150571 466.76755704 107.82592773 457.12939453 C107.37455444 456.19909424 107.37455444 456.19909424 106.9140625 455.25 C106.36982356 455.24902319 105.82558462 455.24804638 105.2648536 455.24703997 C72.98968401 455.18873413 40.7145924 455.1149118 8.43950779 455.02101372 C4.56188572 455.00974592 0.68426329 454.99860741 -3.19335938 454.98754883 C-3.9653055 454.98534514 -4.73725162 454.98314146 -5.53259005 454.980871 C-18.02238631 454.94552437 -30.51218252 454.92064538 -43.00201021 454.89965298 C-55.82321915 454.87786992 -68.64436333 454.84479575 -81.46551716 454.80129844 C-89.37318829 454.77482482 -97.28077878 454.75709789 -105.18849202 454.75065396 C-111.25802811 454.74476316 -117.32740559 454.7231426 -123.39688683 454.69572449 C-125.88246196 454.68694142 -128.36806103 454.68322223 -130.85365105 454.68499184 C-134.25289529 454.68664759 -137.65158296 454.66991857 -141.05075073 454.64872742 C-142.51869152 454.65599878 -142.51869152 454.65599878 -144.01628768 454.66341704 C-156.57007421 454.53467383 -167.07178395 450.09659288 -176.3359375 441.625 C-183.24419732 434.36642275 -187.203394 425.24375307 -187.22015858 415.29122066 C-187.22461642 414.06388492 -187.22907426 412.83654917 -187.23366719 411.57202142 C-187.2335779 410.2079213 -187.23338805 408.84382117 -187.23310852 407.47972107 C-187.23640816 406.03217774 -187.24013394 404.58463532 -187.24425 403.13709408 C-187.25426681 399.15401285 -187.25798628 395.17094669 -187.26063931 391.18785465 C-187.26454334 386.89387107 -187.27412164 382.59989942 -187.28285217 378.30592346 C-187.30261435 367.93295961 -187.31268272 357.55999479 -187.32157996 347.18701681 C-187.32596348 342.30159335 -187.33133015 337.41617097 -187.33656883 332.53074837 C-187.35358127 316.28920307 -187.36807511 300.04765845 -187.37531757 283.80610561 C-187.37722745 279.59135881 -187.37914779 275.37661202 -187.38110352 271.16186523 C-187.38158726 270.11431626 -187.382071 269.06676728 -187.3825694 267.98747439 C-187.39086846 251.02049419 -187.41620324 234.05358451 -187.44868419 217.08663511 C-187.48176341 199.66505276 -187.49976714 182.24350624 -187.50296181 164.82189232 C-187.50512617 155.04112854 -187.51386386 145.26046759 -187.53942299 135.47973442 C-187.56114179 127.14935399 -187.56917461 118.81910138 -187.55945621 110.48869585 C-187.55491486 106.24022135 -187.55678799 101.99201049 -187.57621765 97.74357224 C-187.59387423 93.84909944 -187.59283167 89.95508215 -187.57732036 86.06060434 C-187.57494804 84.65676342 -187.57924829 83.25289074 -187.59114901 81.84909826 C-187.70071384 68.06363813 -184.40372521 57.59773315 -175.0859375 47.25 C-164.12654409 37.45379262 -152.35695281 35.64994778 -138.13671875 35.859375 C-136.62787127 35.8668533 -135.11901394 35.8725387 -133.6101532 35.87652588 C-129.67595689 35.89165757 -125.74236954 35.93082798 -121.80841064 35.9753418 C-117.77925855 36.01656701 -113.7500062 36.03459452 -109.72070312 36.0546875 C-101.84217125 36.09733758 -93.96413054 36.1654331 -86.0859375 36.25 C-86.13234375 35.56292969 -86.17875 34.87585937 -86.2265625 34.16796875 C-86.26265625 33.26691406 -86.29875 32.36585937 -86.3359375 31.4375 C-86.38234375 30.54417969 -86.42875 29.65085938 -86.4765625 28.73046875 C-86.0859375 26.25 -86.0859375 26.25 -84.29376221 24.44706726 C-81.03355876 22.67940754 -77.8685044 22.87971101 -74.2578125 22.95703125 C-73.13430389 22.96339851 -73.13430389 22.96339851 -71.98809814 22.96989441 C-69.60367375 22.98664254 -67.22010497 23.02428603 -64.8359375 23.0625 C-63.21615807 23.07755191 -61.59636535 23.09123943 -59.9765625 23.10351562 C-56.01269284 23.1365332 -52.04946007 23.18828754 -48.0859375 23.25 C-47.8701001 21.84210205 -47.8701001 21.84210205 -47.64990234 20.40576172 C-46.03830789 11.3878094 -40.09113827 5.90881893 -32.8671875 0.84375 C-23.69010809 -4.41502584 -9.42478776 -5.24003644 0 0 Z " fill="#030303" transform="translate(206.0859375,18.75)"/>
<path d="M0 0 C1.09920273 0.00222061 2.19840546 0.00444122 3.33091736 0.00672913 C4.57212845 0.00680466 5.81333954 0.00688019 7.09216309 0.00695801 C8.45682311 0.01206541 9.82148274 0.01728142 11.18614197 0.02259827 C12.57476755 0.02446251 13.96339379 0.02588638 15.35202026 0.02688599 C19.01319686 0.03071065 22.67433402 0.04054048 26.335495 0.05158997 C30.06890835 0.06180519 33.80232805 0.06638384 37.53575134 0.07142639 C44.86584748 0.08216281 52.19591108 0.0992386 59.52598572 0.12025452 C59.72514587 1.18566467 59.72514587 1.18566467 59.92832947 2.27259827 C60.10493103 3.19169983 60.28153259 4.11080139 60.46348572 5.05775452 C60.72452087 6.43253967 60.72452087 6.43253967 60.99082947 7.83509827 C61.3031356 10.07315296 61.3031356 10.07315296 62.52598572 11.12025452 C64.26755329 11.22308931 66.01331091 11.25546507 67.75790405 11.26069641 C68.89229919 11.26640656 70.02669434 11.2721167 71.19546509 11.27799988 C72.45107742 11.27911774 73.70668976 11.2802356 75.00035095 11.28138733 C76.31401642 11.28635223 77.62768188 11.29131714 78.9811554 11.2964325 C82.59475106 11.30957948 86.20832814 11.31600578 89.821944 11.32044315 C92.07715085 11.32336988 94.33235256 11.32747388 96.58755684 11.33194733 C103.63658006 11.34562764 110.68559161 11.35529196 117.73462719 11.35914922 C125.88487317 11.36363298 134.0349517 11.38119327 142.18514675 11.41014981 C148.47644474 11.43172982 154.76769549 11.4418515 161.05903012 11.44319034 C164.82063254 11.44424092 168.58207767 11.45020219 172.34364128 11.46800995 C176.53660709 11.48747329 180.72922011 11.48321644 184.92222595 11.47669983 C186.17581406 11.48591461 187.42940216 11.49512939 188.72097778 11.50462341 C189.85819275 11.49905426 190.99540771 11.49348511 192.16708374 11.48774719 C193.65567477 11.48994703 193.65567477 11.48994703 195.17433834 11.49219131 C195.95038198 11.36945217 196.72642561 11.24671303 197.52598572 11.12025452 C199.45993573 8.2193295 199.82730513 7.22350715 200.15098572 3.93275452 C200.33661072 2.04556702 200.33661072 2.04556702 200.52598572 0.12025452 C208.59250746 0.09712715 216.65901544 0.07933742 224.7255621 0.06844234 C228.47081609 0.06321438 232.21604747 0.0561183 235.96128845 0.04481506 C239.57280259 0.03398311 243.18429493 0.02797703 246.79582405 0.02537727 C248.17658901 0.02352358 249.55735272 0.01990402 250.93810844 0.01452446 C252.86574524 0.00731005 254.79340379 0.00684643 256.72105408 0.00672913 C257.82025681 0.00450851 258.91945953 0.0022879 260.05197144 0 C262.52598572 0.12025452 262.52598572 0.12025452 263.52598572 1.12025452 C263.62133785 2.48633778 263.64787242 3.85730907 263.64624023 5.22671509 C263.64830223 6.55400635 263.64830223 6.55400635 263.65040588 7.90811157 C263.64681061 8.88634384 263.64321533 9.86457611 263.63951111 10.87245178 C263.63965714 11.89672272 263.63980316 12.92099365 263.63995361 13.9763031 C263.639254 17.37977681 263.63145935 20.78319656 263.62364197 24.18666077 C263.62177796 26.5393572 263.62035398 28.89205402 263.61935425 31.24475098 C263.61552771 37.45082156 263.60569627 43.65686892 263.59465027 49.8629303 C263.58443906 56.1902383 263.57985725 62.51755004 263.57481384 68.84486389 C263.56407412 81.27000433 263.54699608 93.6951275 263.52598572 106.12025452 C261.60072602 105.80735014 259.67582692 105.49222653 257.75108337 105.17616272 C256.67911713 105.00091568 255.60715088 104.82566864 254.50270081 104.64511108 C251.22401214 104.06701032 248.08615077 103.27482659 244.90098572 102.30775452 C243.73825134 101.96615295 242.57551697 101.62455139 241.37754822 101.27259827 C239.35367055 100.66925561 237.3313217 100.06127192 235.31016541 99.4488678 C222.51535746 94.76757404 222.51535746 94.76757404 209.52598572 95.12025452 C203.73226166 100.24824009 202.49964802 106.90457559 200.58848572 114.18275452 C199.95481536 116.50709442 199.32068699 118.8313095 198.68614197 121.15541077 C198.21858238 122.89601524 198.21858238 122.89601524 197.74157715 124.67178345 C196.34171245 129.83489828 194.86549792 134.97586357 193.39097595 140.11805725 C193.11455009 141.08372368 192.83812424 142.04939011 192.55332184 143.04431915 C191.87803427 145.40310542 191.20224517 147.76174674 190.52598572 150.12025452 C189.39037201 150.12834137 188.2547583 150.13642822 187.08473206 150.14476013 C176.40133236 150.22212446 165.71806155 150.30983882 155.03483009 150.4077816 C149.54199898 150.45780408 144.04918767 150.50413344 138.55625916 150.54212952 C133.2588396 150.57890731 127.96158333 150.62524646 122.66430283 150.67831802 C120.63965585 150.69690201 118.61497383 150.71199503 116.59027481 150.72359848 C113.76219583 150.74039265 110.9344941 150.76941058 108.10655212 150.80140686 C106.84096214 150.80464714 106.84096214 150.80464714 105.54980469 150.80795288 C101.06475694 150.68494657 101.06475694 150.68494657 97.52598572 153.12025452 C97.19265238 156.12025452 97.19265238 156.12025452 97.52598572 159.12025452 C100.49918361 162.09345241 103.75137857 161.42841813 107.73936462 161.43910217 C108.58821732 161.4491478 109.43707001 161.45919342 110.31164551 161.46954346 C113.12527267 161.50050359 115.93880415 161.51744607 118.75254822 161.53431702 C120.70025971 161.55301836 122.64796302 161.57259098 124.59565735 161.59300232 C129.72812585 161.64443879 134.86062065 161.68400274 139.99320984 161.72114563 C145.22816027 161.76111326 150.46300021 161.81223854 155.69786072 161.86244202 C165.9738249 161.95933757 176.2498513 162.04369857 186.52598572 162.12025452 C185.96283093 165.89284484 185.218553 169.3937571 183.96348572 172.99525452 C183.55936462 174.16701233 183.55936462 174.16701233 183.14707947 175.36244202 C182.83963806 176.2325592 182.83963806 176.2325592 182.52598572 177.12025452 C181.50534531 177.12834137 180.4847049 177.13642822 179.43313599 177.14476013 C169.82431622 177.22217492 160.21563887 177.30990232 150.60700512 177.4077816 C145.66686002 177.45777191 140.72673658 177.50410169 135.78648376 177.54212952 C131.02072525 177.57894779 126.25514686 177.62529826 121.48954201 177.67831802 C119.66947393 177.69688039 117.84936722 177.71198151 116.02924156 177.72359848 C113.48394112 177.74042949 110.93905484 177.76945657 108.39390564 177.80140686 C107.63793091 177.80356705 106.88195618 177.80572723 106.10307312 177.80795288 C102.37389197 177.86793209 100.70962436 177.99782876 97.52598572 180.12025452 C97.14297536 183.1205023 96.92673735 185.17455065 98.58062744 187.78463745 C101.53998611 189.81643282 104.55931067 189.55955246 108.02671814 189.55262756 C109.16854301 189.56791504 109.16854301 189.56791504 110.33343506 189.58351135 C112.84951577 189.61370559 115.36521619 189.62291688 117.88145447 189.63197327 C119.62595898 189.64881523 121.37045132 189.66696481 123.1149292 189.68637085 C127.70651954 189.73392957 132.29806055 189.76370084 136.88981628 189.78981018 C141.5752792 189.81958616 146.260572 189.86612662 150.94590759 189.91127014 C160.13917809 189.99737 169.33248354 190.06468549 178.52598572 190.12025452 C176.47784706 200.59856782 176.47784706 200.59856782 175.15879822 205.67103577 C174.91476257 206.61092346 174.67072693 207.55081116 174.41929626 208.5191803 C174.03898254 209.96139954 174.03898254 209.96139954 173.65098572 211.43275452 C173.38777527 212.43806213 173.12456482 213.44336975 172.8533783 214.47914124 C171.15482749 220.90740707 169.3410738 227.27209292 167.28770447 233.59681702 C166.53478009 236.09112034 166.01971082 238.56396814 165.52598572 241.12025452 C164.70357391 241.12834137 163.88116211 241.13642822 163.03382874 241.14476013 C155.29361749 241.22261332 147.55359729 241.30987541 139.8136158 241.4077816 C135.83414845 241.45778558 131.85470818 241.50411499 127.87510681 241.54212952 C124.0365169 241.57893089 120.19815132 241.62527627 116.35975266 241.67831802 C114.89333394 241.69688949 113.42686708 241.71198724 111.96037674 241.72359848 C109.91055951 241.74041439 107.86125916 241.7694365 105.81163025 241.80140686 C104.05956772 241.82139236 104.05956772 241.82139236 102.27210999 241.84178162 C99.38228 241.84252018 99.38228 241.84252018 97.52598572 244.12025452 C97.05504763 248.18339298 97.05504763 248.18339298 98.67999268 251.78463745 C101.28193012 253.66719712 103.17907912 253.5191339 106.37437439 253.55262756 C107.57539291 253.57242172 108.77641144 253.59221588 110.01382446 253.61260986 C111.31076736 253.61899979 112.60771027 253.62538971 113.94395447 253.63197327 C115.28489837 253.64881911 116.62582648 253.66696923 117.96673584 253.68637085 C121.49300702 253.73388809 125.01921416 253.76368585 128.54570007 253.78981018 C132.14537712 253.81960732 135.7448334 253.86614045 139.34434509 253.91127014 C146.40476565 253.99732245 153.46525436 254.06465896 160.52598572 254.12025452 C160.21471056 255.7038291 159.90191283 257.28710445 159.58848572 258.87025452 C159.41446228 259.75197327 159.24043884 260.63369202 159.06114197 261.54212952 C158.60230083 263.75260505 158.09262498 265.9353752 157.52598572 268.12025452 C156.46482796 268.12905388 156.46482796 268.12905388 155.38223267 268.13803101 C148.7165364 268.19592553 142.05116154 268.26798305 135.38579082 268.35596943 C131.95899492 268.40070479 128.53231877 268.4399534 125.10533142 268.46669006 C121.16586261 268.49766498 117.22689921 268.55245549 113.28770447 268.60853577 C112.0563829 268.61492569 110.82506134 268.62131561 109.556427 268.62789917 C108.41547073 268.64769333 107.27451447 268.66748749 106.09898376 268.68788147 C105.09304672 268.69898453 104.08710968 268.71008759 103.0506897 268.7215271 C100.50148593 268.93516411 100.50148593 268.93516411 98.66595459 270.42071533 C97.17136851 272.28205444 97.17136851 272.28205444 97.71348572 275.74525452 C97.98161072 276.85900452 98.24973572 277.97275452 98.52598572 279.12025452 C101.03532871 280.37492601 102.80975926 280.2789901 105.61827087 280.32557678 C106.67921967 280.345522 107.74016846 280.36546722 108.83326721 280.38601685 C109.98225494 280.40272934 111.13124268 280.41944183 112.31504822 280.43666077 C114.07538895 280.46783241 114.07538895 280.46783241 115.87129211 280.49963379 C119.63112876 280.56517435 123.39103694 280.62403528 127.15098572 280.68275452 C129.69526404 280.72593544 132.23953504 280.76954959 134.78379822 280.81361389 C141.03112019 280.92086037 147.27851431 281.02211513 153.52598572 281.12025452 C151.05098572 290.03025452 151.05098572 290.03025452 148.52598572 299.12025452 C146.66973572 299.20275452 144.81348572 299.28525452 142.90098572 299.37025452 C136.1256354 299.95213754 132.78181428 301.68633423 128.15098572 306.68275452 C125.36739628 312.5711168 125.60398164 318.45129534 127.71348572 324.55775452 C135.96741362 336.22710087 156.50668623 337.8174429 169.52598572 341.12025452 C169.52598572 341.45025452 169.52598572 341.78025452 169.52598572 342.12025452 C147.26490606 342.16692057 125.00383444 342.20221684 102.74271584 342.22387886 C92.4071095 342.23420306 82.07153351 342.24828517 71.73594666 342.27113342 C62.73023025 342.29103237 53.72453582 342.30396263 44.71879804 342.30843151 C39.94782059 342.31104483 35.176906 342.31721087 30.40594864 342.33171463 C25.91955821 342.34524339 21.43325681 342.34948675 16.94684792 342.34646988 C15.2964244 342.34702216 13.64599805 342.35102754 11.99559212 342.35866547 C9.74972239 342.36855326 7.50419294 342.36624624 5.25831604 342.36076355 C3.36956222 342.36352893 3.36956222 342.36352893 1.44265175 342.36635017 C-1.47401428 342.12025452 -1.47401428 342.12025452 -3.47401428 340.12025452 C-3.72356194 337.69933027 -3.72356194 337.69933027 -3.72290325 334.58266354 C-3.72750205 333.39842704 -3.73210084 332.21419054 -3.736839 330.99406809 C-3.73169543 329.68154442 -3.72655187 328.36902075 -3.72125244 327.01672363 C-3.72283937 325.61740167 -3.7253018 324.21808046 -3.72856885 322.81876141 C-3.73500715 318.96004018 -3.72889516 315.10142322 -3.72080457 311.2427088 C-3.7142464 307.08658161 -3.71917191 302.93046643 -3.72268677 298.77433777 C-3.72773738 290.6274404 -3.72207646 282.48058351 -3.71283647 274.33369117 C-3.70247196 264.85602563 -3.70252213 255.37836893 -3.70300905 245.90069879 C-3.70351008 228.99641778 -3.69433664 212.09215566 -3.67982483 195.18788147 C-3.66573434 178.76600297 -3.65865412 162.3441411 -3.65931702 145.92225647 C-3.65935697 144.91075582 -3.65939693 143.89925517 -3.6594381 142.85710298 C-3.65947845 141.84739091 -3.6595188 140.83767883 -3.65956038 139.79736942 C-3.6602494 121.12813453 -3.65436517 102.45890674 -3.64540717 83.78967414 C-3.64238487 77.1752065 -3.6413269 70.56074015 -3.64087486 63.9462719 C-3.64019424 55.89189901 -3.63575076 47.83753808 -3.62654205 39.78317028 C-3.62191035 35.66971205 -3.61888359 31.55626917 -3.62013626 27.44280815 C-3.62122565 23.68337941 -3.61774779 19.9239847 -3.61048774 16.16456307 C-3.60779444 14.14727625 -3.61004369 12.12998475 -3.61241978 10.11269754 C-3.60919534 8.93106879 -3.60597089 7.74944004 -3.60264874 6.53200436 C-3.60194431 5.50366669 -3.60123989 4.47532902 -3.60051411 3.4158296 C-3.42370958 0.20738206 -3.22081343 0.15655421 0 0 Z " fill="#FDFDFD" transform="translate(60.47401428222656,92.87974548339844)"/>
<path d="M0 0 C7.40253443 1.55884058 14.65813218 3.50869349 21.9375 5.5625 C23.07251953 5.87896484 24.20753906 6.19542969 25.37695312 6.52148438 C33.74145408 8.87072704 33.74145408 8.87072704 36 10 C35.02103576 19.29017086 32.31882649 27.88869692 29.38842773 36.72485352 C27.5747189 42.36554052 26.41736034 47.0652053 27 53 C28.85706259 55.26598616 28.85706259 55.26598616 31.734375 55.34375 C35.69334629 54.92701618 37.90076978 53.62061813 41.25 51.5 C46.83333333 48 46.83333333 48 49 48 C50.85882318 51.18006409 52.62191216 54.38092246 54.28320312 57.66796875 C55.39853108 59.68362168 56.37931764 61.35937955 58 63 C61.70410507 63.62724268 61.70410507 63.62724268 65 63 C68.29044491 57.26178509 69.78977837 51.10545242 71.5 44.75 C72.09286611 42.57788355 72.68660575 40.40600533 73.28125 38.234375 C73.70857422 36.66913086 73.70857422 36.66913086 74.14453125 35.07226562 C75.36349443 30.69457364 76.6681103 26.34449734 78 22 C84.8788662 23.48520975 91.69080949 25.16138395 98.5 26.9375 C99.48097656 27.18951172 100.46195312 27.44152344 101.47265625 27.70117188 C107.40120263 29.24448854 113.21861076 30.97272447 119 33 C118.57564766 40.45199173 116.99419247 47.04714364 114.6875 54.125 C112.54124107 60.92121375 110.46920285 67.69180616 108.8125 74.625 C107.41929988 80.41122687 105.80803897 86.07312989 104.01171875 91.74609375 C102.52207949 96.53709568 101.18124029 101.36679274 99.83203125 106.19921875 C99 109 99 109 98 111 C96.03934757 111.62397837 94.05486851 112.17371535 92.0625 112.6875 C86.17044261 114.37278279 82.24348571 116.62506388 77.70703125 120.70703125 C71.09399304 123.86563969 62.85670473 120.60018226 56.25 118.4375 C46.20657654 115.28535599 36.06227538 112.56581398 25.88378906 109.89233398 C18.71001884 108.00407124 11.56510225 106.04037134 4.43701172 103.98632812 C1.04064959 103.01166532 -2.36094628 102.05844741 -5.765625 101.11328125 C-7.37630859 100.6656543 -7.37630859 100.6656543 -9.01953125 100.20898438 C-11.21972015 99.598412 -13.42025535 98.98908644 -15.62109375 98.38085938 C-16.67941406 98.08630859 -17.73773438 97.79175781 -18.828125 97.48828125 C-19.7759082 97.22571533 -20.72369141 96.96314941 -21.70019531 96.69262695 C-24 96 -24 96 -26 95 C-24.31775713 87.32795299 -22.41883258 79.76314001 -20.22265625 72.22265625 C-18.66974815 66.88921111 -17.18207556 61.53752241 -15.6875 56.1875 C-15.07943902 54.0130175 -14.47136591 51.83853838 -13.86328125 49.6640625 C-13.55600098 48.56481445 -13.2487207 47.46556641 -12.93212891 46.33300781 C-12.01175522 43.04203307 -11.09011291 39.75141656 -10.16796875 36.4609375 C-6.76326377 24.31153594 -3.36977403 12.15913855 0 0 Z " fill="#DCB084" transform="translate(247,301)"/>
<path d="M0 0 C8.49205114 1.20961249 16.54803937 3.13403418 24.75 5.625 C25.84054687 5.94984375 26.93109375 6.2746875 28.0546875 6.609375 C30.70511653 7.39985383 33.35341093 8.19677755 36 9 C34.49762962 15.96290888 32.79649877 22.85749235 31 29.75 C30.73960937 30.76449219 30.47921875 31.77898437 30.2109375 32.82421875 C29.95570313 33.80519531 29.70046875 34.78617188 29.4375 35.796875 C29.20933594 36.67698242 28.98117187 37.55708984 28.74609375 38.46386719 C28 41 28 41 26.890625 43.59082031 C25.64166758 46.96930491 26.26614312 49.5308584 27 53 C28.10970289 54.30726306 28.10970289 54.30726306 30.875 54.4375 C35.7679124 54.42734873 39.46960099 51.77253125 43.546875 49.3125 C46 48 46 48 49 48 C49.74443359 49.49853516 49.74443359 49.49853516 50.50390625 51.02734375 C51.18878289 52.33142393 51.87505466 53.63477208 52.5625 54.9375 C52.88541016 55.59685547 53.20832031 56.25621094 53.54101562 56.93554688 C54.66163683 59.13955378 54.66163683 59.13955378 57 62 C60.64989015 63.05952072 60.64989015 63.05952072 64 63 C66.36392295 59.38419673 67.70366814 56.10447998 68.8125 51.9375 C69.14507812 50.72449219 69.47765625 49.51148438 69.8203125 48.26171875 C70.00368164 47.59188965 70.18705078 46.92206055 70.37597656 46.23193359 C71.59044514 41.8881653 72.89238909 37.57026671 74.1875 33.25 C74.44958252 32.36820068 74.71166504 31.48640137 74.98168945 30.57788086 C75.35233521 29.34050171 75.35233521 29.34050171 75.73046875 28.078125 C76.06147583 26.97065918 76.06147583 26.97065918 76.39916992 25.84082031 C77 24 77 24 78 22 C92.04474509 23.80015134 105.57232419 28.66382912 119 33 C118.19613194 38.65544823 116.76151544 44.10856476 115.3125 49.625 C115.0455835 50.64480957 114.77866699 51.66461914 114.50366211 52.71533203 C112.58913816 59.95197406 110.51434915 67.12629352 108.32592773 74.28417969 C105.30065058 84.20795338 102.55809338 94.2104927 99.77978516 104.20556641 C98.21533097 109.81193541 96.61091434 115.40682535 95 121 C91.31134496 122.33177094 89.00357166 121.64853924 85.3125 120.5 C84.06726563 120.12488281 82.82203125 119.74976563 81.5390625 119.36328125 C80.82782227 119.14752441 80.11658203 118.93176758 79.38378906 118.70947266 C74.66954188 117.30639991 69.92581673 116.00646191 65.1875 114.6875 C63.01037019 114.07829108 60.83328763 113.46891326 58.65625 112.859375 C54.2824036 111.63644139 49.90731149 110.41810684 45.53125 109.203125 C36.09589735 106.57905776 26.6769903 103.93011373 17.3125 101.0625 C7.22551348 97.97380393 -2.97055095 95.29702008 -13.17456055 92.62719727 C-14.41890869 92.30033936 -15.66325684 91.97348145 -16.9453125 91.63671875 C-18.06437988 91.34498779 -19.18344727 91.05325684 -20.33642578 90.75268555 C-23 90 -23 90 -25 89 C-22.77735431 78.49117518 -19.82643801 68.23708475 -16.84130859 57.92578125 C-15.38882315 52.87453762 -13.97634778 47.81216829 -12.5625 42.75 C-12.27383057 41.71875 -11.98516113 40.6875 -11.68774414 39.625 C-10.14080756 34.09588857 -8.60172228 28.56468231 -7.0703125 23.03125 C-6.75505615 21.8959082 -6.4397998 20.76056641 -6.11499023 19.59082031 C-5.51058136 17.41373922 -4.90841866 15.23603291 -4.30883789 13.05761719 C-4.03547607 12.07438477 -3.76211426 11.09115234 -3.48046875 10.078125 C-3.24223389 9.21606445 -3.00399902 8.35400391 -2.75854492 7.46582031 C-1.97267767 4.91118265 -1.0257298 2.46704987 0 0 Z " fill="#DCB084" transform="translate(276,200)"/>
<path d="M0 0 C1.46686527 0.00747454 2.93374062 0.01316173 4.40061951 0.01715088 C8.23292351 0.03231215 12.06460634 0.07150924 15.89666748 0.1159668 C19.81839601 0.15712696 23.7402264 0.17520584 27.66210938 0.1953125 C35.33625142 0.2380152 43.00975588 0.30828429 50.68359375 0.390625 C50.68359375 4.350625 50.68359375 8.310625 50.68359375 12.390625 C48.78150146 12.3999707 46.87940918 12.40931641 44.91967773 12.41894531 C38.61711139 12.45454548 32.31490464 12.50838946 26.01258755 12.57452774 C22.19351485 12.61394447 18.3746707 12.64616103 14.55541992 12.66162109 C10.86577116 12.6768265 7.17675097 12.71133926 3.48738289 12.75893402 C2.08372542 12.77370813 0.67997818 12.78166373 -0.72375679 12.78250885 C-11.24199383 12.71788276 -11.24199383 12.71788276 -20.31640625 17.390625 C-24.24506536 21.58119472 -24.44111361 25.63168765 -24.44783401 31.20719719 C-24.45167516 32.40278248 -24.4555163 33.59836776 -24.45947385 34.83018291 C-24.45860737 36.14514314 -24.45774088 37.46010338 -24.45684814 38.81491089 C-24.45943193 40.2247695 -24.46244513 41.63462739 -24.46585155 43.04448426 C-24.47392301 46.9232051 -24.4757112 50.80190744 -24.47644901 54.68063569 C-24.47829927 58.86204669 -24.4858464 63.04344807 -24.49258423 67.22485352 C-24.50616835 76.36935465 -24.51219218 85.51385141 -24.51659489 94.65836096 C-24.51935675 100.36649131 -24.52359396 106.07461997 -24.52809906 111.78274918 C-24.54029102 127.58252036 -24.55059101 143.38229018 -24.55397415 159.18206596 C-24.55419372 160.19333916 -24.55441328 161.20461235 -24.5546395 162.24653018 C-24.55485778 163.26023724 -24.55507606 164.27394429 -24.55530095 165.31836975 C-24.55574442 167.37256551 -24.55619098 169.42676127 -24.55664062 171.48095703 C-24.55686205 172.49991141 -24.55708348 173.5188658 -24.55731162 174.56869759 C-24.56126124 191.08638536 -24.57872059 207.60402906 -24.60200015 224.1216998 C-24.62570018 241.0743032 -24.63817536 258.02688446 -24.63934207 274.9795047 C-24.6402595 284.50019425 -24.64602913 294.02082635 -24.66416168 303.54150009 C-24.67954436 311.6469339 -24.68469393 319.7522925 -24.67642358 327.85773812 C-24.67251078 331.9941602 -24.67347732 336.13043073 -24.68748093 340.26683426 C-24.70018195 344.05304274 -24.699056 347.83898522 -24.68689021 351.62519313 C-24.68399596 353.64466607 -24.69589761 355.66414343 -24.70831227 357.68358028 C-24.70172243 358.88438106 -24.69513258 360.08518184 -24.68834305 361.32237053 C-24.68894014 362.35683874 -24.68953722 363.39130695 -24.69015241 364.45712268 C-24.08276034 369.22449222 -22.13447804 373.23019931 -18.31640625 376.203125 C-13.50761753 379.70953344 -9.46191182 379.52781273 -3.7338562 379.5017395 C-2.846467 379.50173852 -1.9590778 379.50173753 -1.04479802 379.50173652 C1.94167424 379.50069993 4.92808915 379.49267541 7.91455078 379.48486328 C10.05174216 379.4829846 12.18893406 379.48163942 14.3261261 379.48078918 C18.93907267 379.47850164 23.55200839 379.47377257 28.16495132 379.46759415 C35.48115099 379.45918589 42.79729818 379.4646286 50.11349487 379.47360229 C51.34943551 379.4750733 52.58537615 379.47654431 53.85876954 379.47805989 C56.38719565 379.48113104 58.9156217 379.48425108 61.44404769 379.48741889 C78.47642908 379.50856403 95.50864129 379.52247736 112.54101562 379.49023438 C124.02648694 379.46859269 135.51165729 379.47202626 146.99710929 379.50364292 C153.06618674 379.5193899 159.13468932 379.52296527 165.20373917 379.49588394 C213.40417451 379.29474815 213.40417451 379.29474815 233.68359375 387.390625 C235.68008998 388.06771232 237.67839395 388.73976542 239.68359375 389.390625 C239.68359375 390.380625 239.68359375 391.370625 239.68359375 392.390625 C207.73349081 392.459093 175.78340878 392.51216962 143.8332496 392.54382099 C140.05948724 392.54757302 136.28572503 392.55145599 132.51196289 392.55541992 C131.3850517 392.55660032 131.3850517 392.55660032 130.23537462 392.55780456 C118.0778958 392.57085119 105.92045963 392.59450093 93.7630061 392.62208339 C81.28423836 392.65015828 68.80549293 392.66680566 56.32669491 392.67289048 C48.629341 392.67700261 40.93210765 392.68998084 33.23479085 392.7143744 C27.32809142 392.73213746 21.42145354 392.73398535 15.51472664 392.72994804 C13.09482583 392.73077284 10.67492043 392.73673312 8.25504684 392.74824142 C4.94745729 392.76319888 1.64038072 392.75956635 -1.66722107 392.75138855 C-2.62152447 392.76012707 -3.57582786 392.7688656 -4.55904955 392.77786893 C-14.03493647 392.71467965 -22.17628835 390.35387863 -29.1328125 383.63671875 C-37.28169887 374.94343914 -37.75814232 366.85919307 -37.71754456 355.33587646 C-37.72315481 353.90621313 -37.73005928 352.4765544 -37.73814052 351.04690289 C-37.75644103 347.13174575 -37.75610015 343.21678129 -37.7525574 339.30159116 C-37.75194401 335.07375727 -37.76851462 330.84598455 -37.7827301 326.61817932 C-37.80762205 318.34007984 -37.81589337 310.06204445 -37.81756724 301.78391066 C-37.81899404 295.05316883 -37.82516487 288.3224481 -37.83466911 281.59171295 C-37.8610814 262.49763303 -37.87492841 243.40360364 -37.87267769 224.30950531 C-37.87255782 223.28069376 -37.87243795 222.2518822 -37.87231445 221.19189453 C-37.87219181 220.16182294 -37.87206917 219.13175135 -37.87194281 218.07046548 C-37.87072363 201.37918901 -37.899429 184.68811564 -37.94172955 167.99689791 C-37.9848474 150.84750403 -38.00553865 133.69820915 -38.00294822 116.5487597 C-38.00195322 106.92503546 -38.01015436 97.30152415 -38.04248238 87.67784882 C-38.06983255 79.48367751 -38.07629473 71.28981564 -38.05595411 63.0956184 C-38.04617565 58.91775977 -38.04592386 54.74049441 -38.07201385 50.56269264 C-38.09569155 46.73164648 -38.09123471 42.90166124 -38.06516146 39.07064012 C-38.05841516 37.04185301 -38.08097993 35.01303229 -38.10488039 32.98437476 C-37.99928873 23.58810372 -35.87094645 15.62024936 -29.57604891 8.392308 C-21.04513609 0.24373024 -11.19612352 -0.16881299 0 0 Z " fill="#6BACE5" transform="translate(69.31640625,67.609375)"/>
<path d="M0 0 C5.75156819 3.27049956 9.58818912 7.72337359 12.1875 13.8125 C12.83561551 16.19663919 13.3521702 18.56161607 13.79296875 20.9921875 C14.01791969 22.82334708 14.01791969 22.82334708 15.1875 23.8125 C17.70606175 23.97236946 20.20114174 24.07191894 22.72265625 24.12890625 C23.39002808 24.14755737 24.0573999 24.1662085 24.74499512 24.1854248 C27.24652417 24.25390741 29.74827882 24.31393787 32.25 24.375 C37.839375 24.519375 43.42875 24.66375 49.1875 24.8125 C49.1875 37.3525 49.1875 49.8925 49.1875 62.8125 C11.2375 62.8125 -26.7125 62.8125 -65.8125 62.8125 C-65.8125 50.2725 -65.8125 37.7325 -65.8125 24.8125 C-49.5 24.5 -49.5 24.5 -44.36206055 24.42456055 C-43.01608501 24.39227103 -41.67013485 24.35889735 -40.32421875 24.32421875 C-39.62703735 24.31797485 -38.92985596 24.31173096 -38.21154785 24.30529785 C-34.28501166 24.189249 -34.28501166 24.189249 -30.87768555 22.40429688 C-29.57332241 20.45507669 -29.27364472 18.9411191 -28.9375 16.625 C-27.64236287 10.10685082 -24.93663279 5.46932358 -19.6875 1.375 C-13.29312263 -2.10020509 -6.88058567 -2.14313324 0 0 Z " fill="#4094DF" transform="translate(198.8125,30.1875)"/>
<path d="M0 0 C0.72832031 0.47566406 1.45664063 0.95132813 2.20703125 1.44140625 C4.14653229 2.64368734 4.14653229 2.64368734 6.36328125 2.1875 C8.29116676 1.55237542 8.29116676 1.55237542 9.5625 -0.125 C11.1875 -1.5625 11.1875 -1.5625 14.1875 -1.9375 C17.1875 -1.5625 17.1875 -1.5625 19.0625 -0.5 C20.88382206 2.63672133 20.67674087 4.89050373 20.1875 8.4375 C17.6875 11.375 17.6875 11.375 15.1875 13.4375 C15.4040625 13.94796875 15.620625 14.4584375 15.84375 14.984375 C19.13635761 23.58173933 19.82834721 33.79048789 16.1875 42.4375 C11.60229769 51.09508593 5.59292651 57.47217695 -3.6875 60.875 C-13.41578167 63.69461489 -21.76252413 63.23321371 -30.8125 58.4375 C-38.4606411 52.99010605 -45.05559209 45.94547223 -46.8125 36.4375 C-47.46298848 27.87451233 -47.27223977 20.89097512 -42.8125 13.4375 C-42.214375 12.385625 -41.61625 11.33375 -41 10.25 C-31.38283592 -2.11492524 -14.45581144 -7.67830934 0 0 Z " fill="#030403" transform="translate(125.8125,235.5625)"/>
<path d="M0 0 C0.928125 0.61875 0.928125 0.61875 1.875 1.25 C2.143125 0.63125 2.41125 0.0125 2.6875 -0.625 C3.875 -2.75 3.875 -2.75 6.875 -4.75 C12.31944444 -4.30555556 12.31944444 -4.30555556 14.875 -1.75 C15.3125 1.5625 15.3125 1.5625 14.875 5.25 C12.375 8.1875 12.375 8.1875 9.875 10.25 C10.37 11.466875 10.865 12.68375 11.375 13.9375 C14.3219664 22.91940239 13.79050225 32.03445197 10.2109375 40.7421875 C8.02428394 44.84695822 5.21273078 48.04181585 1.875 51.25 C1.111875 51.9925 0.34875 52.735 -0.4375 53.5 C-8.60750255 58.82000166 -16.4288435 60.40686 -26.125 59.25 C-33.57131806 57.47506664 -38.81951382 53.64185456 -44.125 48.25 C-45.23875 47.13625 -45.23875 47.13625 -46.375 46 C-51.66883884 37.68111039 -53.3404807 29.01105417 -52.125 19.25 C-51.21728266 15.93020233 -49.91413562 13.18173001 -48.125 10.25 C-47.70089844 9.55132812 -47.27679688 8.85265625 -46.83984375 8.1328125 C-35.62810378 -8.41933843 -16.31199151 -9.13471524 0 0 Z " fill="#030403" transform="translate(131.125,329.75)"/>
<path d="M0 0 C2.04889729 0.97176271 3.80096739 1.66824169 6.05078125 1.97265625 C6.66953125 1.33328125 7.28828125 0.69390625 7.92578125 0.03515625 C10.05078125 -2.02734375 10.05078125 -2.02734375 13.11328125 -2.40234375 C16.05078125 -2.02734375 16.05078125 -2.02734375 19.05078125 -0.02734375 C19.57917498 3.3411663 19.86391029 5.82653151 17.8203125 8.70703125 C17.33949219 9.2690625 16.85867187 9.83109375 16.36328125 10.41015625 C14.92876986 12.11132581 14.92876986 12.11132581 14.05078125 13.97265625 C15.08763377 17.32153364 15.08763377 17.32153364 16.19140625 19.546875 C18.8891409 27.16184417 17.82406271 36.43548913 14.4375 43.66015625 C9.63296541 51.67222519 3.1982201 57.59535594 -5.74609375 60.5703125 C-15.44640868 62.34182391 -24.70655799 61.88244085 -33.32421875 56.859375 C-41.61182087 50.90266098 -45.93965782 43.98278163 -47.94921875 33.97265625 C-49.07108483 24.75231943 -47.61002626 17.14571607 -42.21875 9.52734375 C-31.67276383 -3.22887905 -15.17570575 -7.31264577 0 0 Z " fill="#020302" transform="translate(126.94921875,145.02734375)"/>
<path d="M0 0 C7.61753585 4.32600802 11.87106157 10.23542211 15.52734375 18.0703125 C17.3997616 26.75152254 16.63759233 34.50234119 12.21484375 42.2578125 C7.35883873 49.42184814 1.62603009 53.99616188 -6.78515625 56.2578125 C-16.71627133 57.74347989 -24.52358579 55.96282991 -32.78515625 50.2578125 C-35.23566794 48.13831751 -37.02234865 45.96623212 -38.78515625 43.2578125 C-39.19507813 42.7215625 -39.605 42.1853125 -40.02734375 41.6328125 C-44.3541143 34.94869799 -43.72068522 25.88975939 -42.78515625 18.2578125 C-41.92340032 15.1103296 -40.74868086 12.84344392 -38.78515625 10.2578125 C-38.08390625 9.2265625 -37.38265625 8.1953125 -36.66015625 7.1328125 C-27.37661812 -3.45622318 -12.52091283 -5.80385911 0 0 Z " fill="#959595" transform="translate(364.78515625,426.7421875)"/>
<path d="M0 0 C2 2 2 2 2.625 4.3125 C2 7 2 7 0.49630737 8.21447754 C-4.4448445 11.19941089 -9.4518057 13.72716901 -14.7421875 16.03125 C-15.55060089 16.38964966 -16.35901428 16.74804932 -17.19192505 17.11730957 C-19.75046583 18.25059933 -22.31246474 19.37577537 -24.875 20.5 C-26.58490592 21.25329252 -28.29454365 22.00719414 -30.00390625 22.76171875 C-31.24989594 23.31170532 -31.24989594 23.31170532 -32.52105713 23.87280273 C-34.93539434 24.94356221 -37.34451766 26.02536601 -39.75292969 27.109375 C-42.26083119 28.23782696 -44.7626175 29.3053164 -47.31738281 30.328125 C-51.94366935 32.23533176 -51.94366935 32.23533176 -55.14306641 35.8984375 C-55.97783449 38.25148911 -56.5014351 40.55420993 -57 43 C-57.51539095 44.82595651 -58.04201626 46.64876856 -58.578125 48.46875 C-59.13770516 50.47853089 -59.69488572 52.48898103 -60.25 54.5 C-60.8696839 56.73049869 -61.48947866 58.96096659 -62.109375 61.19140625 C-62.42326172 62.32336426 -62.73714844 63.45532227 -63.06054688 64.62158203 C-63.95604931 67.84194656 -64.85901381 71.06009096 -65.765625 74.27734375 C-68.80929874 85.08371109 -71.79049442 95.90332514 -74.6875 106.75 C-76.63426029 114.03236472 -78.63887871 121.27062392 -80.91796875 128.45703125 C-83.47069732 136.81560458 -85.73628027 145.26166733 -88.07666016 153.68164062 C-89.54434984 158.95632019 -91.02246401 164.22807181 -92.5 169.5 C-94.26368271 175.79632751 -96.02630195 182.0929468 -97.78515625 188.390625 C-100.62606312 198.55849038 -103.4785337 208.72280175 -106.375 218.875 C-106.62580322 219.75510742 -106.87660645 220.63521484 -107.13500977 221.54199219 C-107.36631592 222.35055664 -107.59762207 223.15912109 -107.8359375 223.9921875 C-108.03751465 224.69714355 -108.2390918 225.40209961 -108.44677734 226.12841797 C-108.92991749 227.7629071 -109.46102142 229.38306425 -110 231 C-113.12290635 230.51421457 -115.99580359 230.0013988 -119 229 C-118.37483696 222.25946002 -116.75811244 216.05374719 -114.875 209.5625 C-114.23682491 207.32426273 -113.59880849 205.08598021 -112.9609375 202.84765625 C-112.63448242 201.7095752 -112.30802734 200.57149414 -111.97167969 199.39892578 C-110.45843541 194.1056125 -108.98022098 188.80262216 -107.5 183.5 C-106.9180949 181.42314173 -106.33606321 179.34631893 -105.75390625 177.26953125 C-104.56913758 173.03915958 -103.39007911 168.80724835 -102.21484375 164.57421875 C-99.58706824 155.12445845 -96.93386546 145.69138569 -94.0625 136.3125 C-91.08546176 126.57010947 -88.47965755 116.73113798 -85.89086914 106.88012695 C-83.99501851 99.67377573 -82.02268501 92.49633633 -79.95996094 85.3359375 C-78.50905305 80.2939219 -77.09943351 75.24053831 -75.6875 70.1875 C-75.39262695 69.13651123 -75.09775391 68.08552246 -74.79394531 67.00268555 C-73.21005446 61.35305581 -71.6418237 55.69968661 -70.09765625 50.0390625 C-69.78803955 48.91218018 -69.47842285 47.78529785 -69.15942383 46.62426758 C-68.5669317 44.46664187 -67.9792833 42.30767836 -67.3972168 40.1472168 C-67.1269165 39.16664307 -66.85661621 38.18606934 -66.578125 37.17578125 C-66.34512695 36.31895752 -66.11212891 35.46213379 -65.87207031 34.5793457 C-64.25426136 29.79430886 -63.22304623 26.79619405 -58.86401367 23.95849609 C-57.57880664 23.33556224 -56.28343957 22.73330564 -54.98046875 22.1484375 C-54.27810593 21.81580902 -53.5757431 21.48318054 -52.85209656 21.14047241 C-50.57746584 20.07182418 -48.29079355 19.03349933 -46 18 C-45.24108459 17.65296021 -44.48216919 17.30592041 -43.70025635 16.94836426 C-38.25797165 14.46063574 -32.7889622 12.03633276 -27.3125 9.625 C-25.69321385 8.9078806 -24.07407263 8.19043385 -22.45507812 7.47265625 C-20.90377537 6.78616554 -19.35234782 6.09995674 -17.80078125 5.4140625 C-17.08932449 5.09950104 -16.37786774 4.78493958 -15.64485168 4.46084595 C-4.4241266 -0.47828396 -4.4241266 -0.47828396 0 0 Z " fill="#DFDFDF" transform="translate(478,183)"/>
<path d="M0 0 C8.3022496 -0.09073497 16.60410714 -0.16396408 24.90672112 -0.20724869 C28.76287279 -0.22803376 32.61866469 -0.25618242 36.47460938 -0.30175781 C40.20290741 -0.34554361 43.93086161 -0.36920521 47.65939713 -0.37950897 C49.07464121 -0.3868422 50.48986864 -0.40116079 51.90496445 -0.42292023 C62.03704199 -0.57237762 70.43013375 0.36230868 78.75 6.5 C86.97283482 14.52392084 88.52779094 22.94263601 88.68115234 34.01074219 C88.70224798 38.85724341 88.64779056 43.70082747 88.5859375 48.546875 C88.57473295 51.13046275 88.56619872 53.71406334 88.56021118 56.29766846 C88.53973573 62.37499622 88.49257412 68.45156574 88.43211424 74.52860951 C88.36472187 81.45490188 88.33197857 88.38122804 88.30194163 95.30776739 C88.23946279 109.53886311 88.13413393 123.76940807 88 138 C79.96428571 137.19642857 79.96428571 137.19642857 76 135 C75.99945523 134.42923453 75.99891047 133.85846907 75.99834919 133.27040768 C75.98336387 119.36467971 75.94053124 105.45927574 75.86790943 91.55372524 C75.83329675 84.82899304 75.80790884 78.10446502 75.80444336 71.37963867 C75.80016314 64.88904313 75.7717219 58.39896086 75.72656822 51.90852547 C75.71358463 49.43306531 75.70928855 46.95754376 75.71384621 44.48205376 C75.71874566 41.01278217 75.69268534 37.54501443 75.65942383 34.07592773 C75.67236229 32.54275406 75.67236229 32.54275406 75.68556213 30.97860718 C75.57903609 24.34483446 74.47554716 20.96077827 70 16 C63.53141089 11.76199631 56.03368292 12.52229579 48.53515625 12.48828125 C47.13266954 12.47141523 45.73019777 12.45326243 44.32774353 12.43388367 C40.65685699 12.3865856 36.98603104 12.3566464 33.31494141 12.33044434 C29.56075072 12.30053614 25.8067684 12.25404137 22.05273438 12.20898438 C14.70190898 12.12318125 7.35111321 12.0572699 0 12 C0 8.04 0 4.08 0 0 Z " fill="#6BACE5" transform="translate(261,68)"/>
<path d="M0 0 C1.15322754 -0.00700928 2.30645508 -0.01401855 3.49462891 -0.02124023 C7.31249973 -0.03886691 11.1296312 -0.02717928 14.94750977 -0.01367188 C17.5978335 -0.01636561 20.24813467 -0.02024081 22.89845276 -0.02526855 C28.45598376 -0.03254422 34.01330208 -0.02296068 39.57080078 -0.00390625 C45.99091512 0.01785193 52.41052112 0.01081897 58.83062309 -0.01121187 C64.34670397 -0.0293812 69.86263207 -0.03191648 75.37873322 -0.0214572 C78.67149181 -0.01522916 81.96395991 -0.01594329 85.25671196 -0.02760315 C88.92930408 -0.03775258 92.60091828 -0.02228758 96.2734375 0 C97.36191483 -0.00809692 98.45039215 -0.01619385 99.57185364 -0.02453613 C104.0841966 0.02623923 106.9299494 0.08416308 110.91566467 2.32336426 C112.70141602 4.51757812 112.70141602 4.51757812 112.70141602 8.14257812 C111.70141602 11.51757812 111.70141602 11.51757812 108.70141602 13.51757812 C106.45095062 13.77484703 106.45095062 13.77484703 103.76721191 13.78500366 C102.74931076 13.79353363 101.73140961 13.8020636 100.68266296 13.81085205 C99.56672256 13.80994568 98.45078217 13.80903931 97.30102539 13.80810547 C96.12522415 13.81482269 94.94942291 13.82153992 93.73799133 13.82846069 C90.51282361 13.84421749 87.28781035 13.85081644 84.06260872 13.85209227 C81.37111905 13.85399118 78.67965411 13.86134837 75.98817396 13.86843646 C69.63980831 13.88472122 63.29149938 13.88960522 56.94311523 13.88818359 C50.39066549 13.88698115 43.8385446 13.90810285 37.28617811 13.93967092 C31.6623223 13.96580172 26.03857414 13.97655229 20.41465807 13.97527277 C17.05486014 13.97476232 13.69535461 13.98049128 10.33561707 14.00162888 C6.59073252 14.0211369 2.84670379 14.01551034 -0.89819336 14.00341797 C-2.57210396 14.02027649 -2.57210396 14.02027649 -4.27983093 14.03747559 C-5.80668266 14.02489212 -5.80668266 14.02489212 -7.36437988 14.01205444 C-8.69283054 14.01368875 -8.69283054 14.01368875 -10.04811859 14.01535606 C-12.29858398 13.51757812 -12.29858398 13.51757812 -14.07962799 11.64292336 C-15.61576993 8.96453958 -15.83091709 7.55948159 -15.29858398 4.51757812 C-11.7770031 -1.14363208 -5.9440444 -0.04413426 0 0 Z " fill="#060606" transform="translate(172.298583984375,150.482421875)"/>
<path d="M0 0 C0.89294769 -0.00525696 1.78589539 -0.01051392 2.7059021 -0.01593018 C5.66218476 -0.02915094 8.61793046 -0.02038472 11.57421875 -0.01025391 C13.62540796 -0.01227404 15.67659646 -0.01518498 17.7277832 -0.01895142 C22.02855257 -0.02337759 26.32913514 -0.01693423 30.62988281 -0.00292969 C36.1483497 0.01416228 41.66637889 0.00432267 47.18482971 -0.01364708 C51.4209728 -0.02447696 55.65701177 -0.02104222 59.89315796 -0.0132637 C61.92817232 -0.0112595 63.96319607 -0.01372867 65.99819946 -0.02070236 C68.84020096 -0.02830369 71.68148925 -0.01673111 74.5234375 0 C75.36820648 -0.00607269 76.21297546 -0.01214539 77.08334351 -0.0184021 C82.81041458 0.04420106 82.81041458 0.04420106 84.97395325 1.69324303 C87.12997465 4.53097096 86.68876011 6.97185272 86.26171875 10.38818359 C83.77955069 13.21585872 82.1684724 13.39752256 78.39086914 13.77586365 C76.79716483 13.79671599 75.20319176 13.80097648 73.609375 13.79223633 C72.30140457 13.8025312 72.30140457 13.8025312 70.9670105 13.81303406 C68.08591409 13.83132914 65.20536075 13.82746108 62.32421875 13.82177734 C60.32169416 13.8263375 58.31917113 13.83164257 56.31665039 13.83766174 C52.12021526 13.84659791 47.92397039 13.84416352 43.72753906 13.83422852 C38.34698684 13.82273204 32.96709023 13.84295828 27.58662415 13.87214565 C23.45165835 13.89048056 19.31685049 13.89022071 15.18185425 13.88450813 C13.19789713 13.88435462 11.21392951 13.89042369 9.23001099 13.90279961 C6.45760798 13.91765844 3.68642696 13.90707077 0.9140625 13.88989258 C0.09316132 13.89956055 -0.72773987 13.90922852 -1.57351685 13.91918945 C-5.17053675 13.8724603 -7.3088109 13.70257665 -10.25170898 11.54823303 C-12.25975235 8.63046506 -12.25492133 6.85705272 -11.73828125 3.38818359 C-8.60016207 -0.65649767 -4.74964182 -0.0341432 0 0 Z " fill="#090909" transform="translate(168.73828125,178.61181640625)"/>
<path d="M0 0 C6.31228335 0.38922927 12.32452793 2.38393812 18.375 4.125 C20.62236204 4.76313984 22.86975885 5.40115728 25.1171875 6.0390625 C26.83373535 6.52874512 26.83373535 6.52874512 28.58496094 7.02832031 C33.88509196 8.53636445 39.19265897 10.01757289 44.5 11.5 C46.58337396 12.08318823 48.66670718 12.66652198 50.75 13.25 C52.296875 13.683125 52.296875 13.683125 53.875 14.125 C58.5625 15.4375 58.5625 15.4375 63.25 16.75 C64.79929199 17.18372925 64.79929199 17.18372925 66.37988281 17.6262207 C68.44704173 18.20512225 70.51410037 18.78438203 72.58105469 19.36401367 C78.03605526 20.89322355 83.49305677 22.4147568 88.953125 23.92578125 C90.09072266 24.24160156 91.22832031 24.55742187 92.40039062 24.8828125 C94.58074456 25.48797196 96.76170524 26.09095098 98.94335938 26.69140625 C100.41772461 27.10132813 100.41772461 27.10132813 101.921875 27.51953125 C102.78393555 27.75776611 103.64599609 27.99600098 104.53417969 28.24145508 C107.08881735 29.02732233 109.53295013 29.9742702 112 31 C111.01 33.97 110.02 36.94 109 40 C102.35755772 38.74459609 95.91803351 37.22512214 89.4375 35.3125 C87.59265191 34.77664094 85.74759033 34.24151647 83.90234375 33.70703125 C82.94183105 33.42811035 81.98131836 33.14918945 80.99169922 32.86181641 C75.83651799 31.37676746 70.66783029 29.9402868 65.5 28.5 C56.81629007 26.07572551 48.14269563 23.61875855 39.47631836 21.13330078 C33.84553816 19.52079348 28.2071695 17.93813925 22.5625 16.375 C21.83160156 16.17132813 21.10070312 15.96765625 20.34765625 15.7578125 C16.86180482 14.78706906 13.37332673 13.831095 9.875 12.90625 C8.616875 12.5659375 7.35875 12.225625 6.0625 11.875 C4.96035156 11.58367187 3.85820312 11.29234375 2.72265625 10.9921875 C0.01866218 10.00680085 -1.32986997 9.32289212 -3 7 C-2.75546876 3.65807308 -2.39456443 2.39456443 0 0 Z " fill="#DEDEDE" transform="translate(201,404)"/>
<path d="M0 0 C4.23994846 2.35367217 7.87238111 5.46917798 9.4140625 10.234375 C10.38357788 15.44314389 11.00023559 20.81712656 8.71875 25.73046875 C5.62094254 30.12177561 2.00764207 33.72526061 -3.1875 35.375 C-8.51358441 36.29028455 -12.83758612 35.96880519 -17.5625 33.25 C-21.93674026 30.13942915 -24.48985654 26.46793037 -26.1875 21.375 C-26.97862286 15.01211186 -26.44039968 10.34392142 -22.6875 5.06640625 C-16.67464483 -1.7137143 -8.20613786 -3.74560459 0 0 Z " fill="#030303" transform="translate(359.1875,436.625)"/>
<path d="M0 0 C-1.57780923 3.71045247 -3.90703248 6.29906384 -6.625 9.25 C-7.44226563 10.14203125 -8.25953125 11.0340625 -9.1015625 11.953125 C-9.72804688 12.62859375 -10.35453125 13.3040625 -11 14 C-11.59167969 13.6390625 -12.18335937 13.278125 -12.79296875 12.90625 C-13.58316406 12.4421875 -14.37335938 11.978125 -15.1875 11.5 C-15.96480469 11.0359375 -16.74210937 10.571875 -17.54296875 10.09375 C-20.28710371 8.87219548 -22.02959697 8.64055627 -25 9 C-27.32034025 10.93067384 -27.32034025 10.93067384 -27.5390625 14.31640625 C-27.36033831 18.21964363 -27.36033831 18.21964363 -24.1484375 20.65234375 C-22.90670782 21.4400081 -21.64785389 22.20119116 -20.375 22.9375 C-19.75753906 23.33517578 -19.14007813 23.73285156 -18.50390625 24.14257812 C-14.60661869 26.52607715 -11.67821768 27.74984198 -7 27 C-5.05354442 25.81199818 -5.05354442 25.81199818 -3.5625 24 C-2.69431641 23.05447266 -2.69431641 23.05447266 -1.80859375 22.08984375 C-1.21175781 21.40019531 -0.61492187 20.71054688 0 20 C0.64839844 19.25878906 1.29679687 18.51757812 1.96484375 17.75390625 C3.19220981 16.34582371 4.410498 14.92974787 5.6171875 13.50390625 C6.07351562 13.00761719 6.52984375 12.51132813 7 12 C7.33 12 7.66 12 8 12 C8.51225423 18.94389068 8.10762865 24.21441847 4 30 C-0.30231376 34.30231376 -5.30785064 36.59363783 -11.3125 37.5 C-17.15774746 36.70742407 -22.56807967 34.5316346 -26.71484375 30.21484375 C-31.20242241 24.08832332 -31.87887314 18.38455474 -31 11 C-28.68603022 4.82595506 -24.50043064 1.36137428 -19 -2 C-11.95591454 -4.34802849 -6.56628878 -2.81412376 0 0 Z " fill="#3D9D55" transform="translate(123,157)"/>
<path d="M0 0 C0.69351563 0.48597656 1.38703125 0.97195312 2.1015625 1.47265625 C-1.46164595 6.56475911 -4.94585036 10.69925652 -9.8984375 14.47265625 C-10.40632813 14.10011719 -10.91421875 13.72757812 -11.4375 13.34375 C-15.95717704 10.17259945 -15.95717704 10.17259945 -21.3359375 9.59765625 C-23.80238027 10.22970795 -23.80238027 10.22970795 -24.8984375 11.47265625 C-25.82003031 14.7131678 -25.82003031 14.7131678 -24.8984375 18.47265625 C-21.84533185 21.2732072 -18.4468228 23.35480109 -14.8984375 25.47265625 C-13.9084375 26.13265625 -12.9184375 26.79265625 -11.8984375 27.47265625 C-8.65792595 28.39424906 -8.65792595 28.39424906 -4.8984375 27.47265625 C0.4946854 23.21541369 4.76190509 17.76161372 9.1015625 12.47265625 C9.4315625 12.47265625 9.7615625 12.47265625 10.1015625 12.47265625 C10.61286311 19.40362011 10.25107692 24.72224892 6.1015625 30.47265625 C1.59670699 35.44571303 -3.20040725 37.21155655 -9.7734375 37.84765625 C-15.09704706 37.68479248 -19.53909926 35.65280424 -23.44140625 32.046875 C-28.22524568 26.61770825 -29.4828591 21.39308313 -29.33984375 14.328125 C-28.35941013 7.9856739 -24.6214085 3.91432586 -19.8359375 -0.08984375 C-14.00558099 -2.93328384 -5.67906046 -2.99260464 0 0 Z " fill="#3D9E55" transform="translate(120.8984375,247.52734375)"/>
<path d="M0 0 C1.63671875 0.8203125 1.63671875 0.8203125 3.88671875 2.3203125 C0.3235103 7.41241536 -3.16069411 11.54691277 -8.11328125 15.3203125 C-9.10328125 14.6603125 -10.09328125 14.0003125 -11.11328125 13.3203125 C-15.26407945 10.90962397 -18.3864808 10.98860721 -23.11328125 11.3203125 C-23.92492172 15.3994679 -23.92492172 15.3994679 -23.11328125 19.3203125 C-18.86567852 23.44573376 -13.61672554 27.06367007 -8.11328125 29.3203125 C-4.49270857 29.32699967 -4.49270857 29.32699967 -1.11328125 28.3203125 C-0.41251213 27.00458272 0.2488734 25.66767122 0.88671875 24.3203125 C2.19537665 22.90193073 3.5532952 21.52790014 4.94921875 20.1953125 C7.80243808 17.5412625 7.80243808 17.5412625 9.88671875 14.3203125 C10.54671875 14.3203125 11.20671875 14.3203125 11.88671875 14.3203125 C12.43611315 20.91304531 11.78084116 25.84942887 7.88671875 31.3203125 C4.39441076 34.99937493 0.45190169 37.94190818 -4.62890625 38.69140625 C-11.48485078 38.85790776 -15.87778772 37.850314 -21.11328125 33.3203125 C-26.02541943 28.02037394 -27.53099201 23.97926995 -27.36328125 16.8515625 C-26.73430876 10.483216 -23.86761173 6.39545291 -19.11328125 2.3203125 C-13.45600872 -1.66965484 -6.60794131 -2.12528981 0 0 Z " fill="#3D9E56" transform="translate(119.11328125,337.6796875)"/>
<path d="M0 0 C4.42936191 0.56956839 8.6421029 1.34281934 12.9375 2.5625 C13.89527344 2.83191406 14.85304688 3.10132813 15.83984375 3.37890625 C16.90912109 3.68634766 16.90912109 3.68634766 18 4 C16.80398501 11.99441599 14.73311633 19.397691 12 27 C10.29344058 25.31754452 8.68670129 23.63448484 7.125 21.8125 C5.14735977 19.80404606 5.14735977 19.80404606 2.5625 19.625 C-0.20812848 20.03045783 -2.45931344 20.83854329 -5 22 C-4.26861959 17.11899811 -3.15925104 12.39975848 -1.9375 7.625 C-1.75123047 6.88894531 -1.56496094 6.15289062 -1.37304688 5.39453125 C-0.91752543 3.59580556 -0.4590645 1.79782471 0 0 Z " fill="#E9CAAA" transform="translate(295,315)"/>
<path d="M0 0 C5.92863717 1.16651426 11.38798394 2.75519358 17 5 C16.36684209 10.12524666 15.31839344 14.96530771 13.9375 19.9375 C13.75123047 20.62134766 13.56496094 21.30519531 13.37304688 22.00976562 C12.91910943 23.67420293 12.46009084 25.33725312 12 27 C11.34 27 10.68 27 10 27 C9.443125 26.01 8.88625 25.02 8.3125 24 C6.27128006 20.63233916 6.27128006 20.63233916 2.5625 20.5 C-0.64812402 20.9506139 -3.09780502 21.59287516 -6 23 C-4.64741104 15.11583017 -2.45600648 7.60646666 0 0 Z " fill="#E9CAAA" transform="translate(324,213)"/>
<path d="M0 0 C2.9375 0.8125 2.9375 0.8125 4.9375 3.8125 C4.6133631 7.13490324 4.32973697 8.42026303 1.9375 10.8125 C-1.0625 11.0625 -1.0625 11.0625 -4.0625 10.8125 C-6.0625 8.8125 -6.0625 8.8125 -6.375 5.3125 C-6.271875 4.1575 -6.16875 3.0025 -6.0625 1.8125 C-3.0625 -0.1875 -3.0625 -0.1875 0 0 Z " fill="#8F8F8F" transform="translate(352.0625,448.1875)"/>
</svg>
