<?xml version="1.0" encoding="UTF-8"?>
<svg version="1.1" xmlns="http://www.w3.org/2000/svg" width="512" height="512">
<path d="M0 0 C0.72422653 0.26710785 1.44845306 0.5342157 2.19462585 0.80941772 C4.60087991 1.70348278 6.99810241 2.61900658 9.39453125 3.5390625 C10.22938049 3.85701782 11.06422974 4.17497314 11.92437744 4.50256348 C17.5065827 6.63135389 23.07562409 8.79296941 28.64053345 10.96652222 C34.0354292 13.07335725 39.4340003 15.17074519 44.83203125 17.26953125 C45.95092239 17.70481644 47.06981354 18.14010162 48.22261047 18.58857727 C60.20573608 23.2483025 72.20519789 27.86527986 84.20703125 32.4765625 C86.38257039 33.31265749 88.55810749 34.14875777 90.73364258 34.98486328 C95.10439145 36.66448757 99.47526263 38.34379315 103.84619141 40.02294922 C110.36678741 42.52812409 116.88663545 45.03524095 123.40625 47.54296875 C124.47945999 47.95576584 125.55266998 48.36856293 126.65840149 48.79386902 C132.04683793 50.86653526 137.43518922 52.93942274 142.82348633 55.01245117 C152.86886331 58.87692932 162.91489166 62.73968446 172.96337891 66.59606934 C177.64805701 68.39407105 182.33234284 70.1930935 187.01660156 71.9921875 C189.22408937 72.83969944 191.43176379 73.68672553 193.63964844 74.53320312 C199.62024278 76.82616559 205.59785187 79.12652041 211.56933594 81.44311523 C213.47040113 82.18057476 215.3721067 82.91638541 217.27441406 83.65063477 C220.02586627 84.71511169 222.77319057 85.78960199 225.51953125 86.8671875 C226.33099609 87.17968445 227.14246094 87.4921814 227.97851562 87.81414795 C234.27980676 90.30712637 240.43717241 92.94904241 243.69921875 99.28125 C245.61786017 105.51144517 245.48550144 112.23590322 242.70703125 118.1015625 C237.35681011 123.74098479 231.83238862 126.27460118 224.70703125 129.1015625 C223.54896973 129.56715576 222.3909082 130.03274902 221.19775391 130.51245117 C207.14405403 136.13154683 192.9668799 141.44008367 178.8112793 146.79541016 C162.52251196 152.95879261 146.26350559 159.19611849 130.01953125 165.4765625 C127.61027448 166.40780734 125.2010134 167.33904105 122.79174805 168.27026367 C119.18975963 169.66254465 115.58778433 171.0548594 111.98588562 172.44737244 C99.68991983 177.20010479 87.38672494 181.93398051 75.08203125 186.6640625 C73.51127335 187.26788757 73.51127335 187.26788757 71.90878296 187.88391113 C67.68529301 189.50744242 63.46179497 191.13095262 59.23823547 192.75430298 C51.05491731 195.89990416 42.87301314 199.04916967 34.69140625 202.19921875 C31.07550965 203.59109435 27.45958913 204.98290777 23.84365845 206.37469482 C21.51754114 207.27017792 19.19151052 208.16588624 16.86557007 209.06182861 C13.65540375 210.29833324 10.4449245 211.53402197 7.234375 212.76953125 C6.27766907 213.13828873 5.32096313 213.5070462 4.33526611 213.88697815 C3.02256744 214.39188026 3.02256744 214.39188026 1.68334961 214.90698242 C0.92307968 215.19973557 0.16280975 215.49248871 -0.62049866 215.79411316 C-14.53569821 221.0164179 -26.84407973 214.56796861 -39.79296875 209.4140625 C-41.99939779 208.55329371 -44.20661134 207.69453353 -46.41455078 206.83764648 C-51.08716476 205.02109584 -55.75530509 203.19365634 -60.42041016 201.35791016 C-67.51601264 198.56879877 -74.62664235 195.81980498 -81.7421875 193.08203125 C-82.91219299 192.63175568 -84.08219849 192.1814801 -85.28765869 191.71755981 C-87.65962831 190.80473904 -90.03161728 189.89196854 -92.40362549 188.97924805 C-98.41191402 186.6650476 -104.41676013 184.34195165 -110.421875 182.01953125 C-123.91484224 176.8027809 -137.41512204 171.6051791 -150.91796875 166.4140625 C-153.0473674 165.59522556 -155.17676194 164.77637793 -157.30615234 163.95751953 C-167.18594173 160.15858921 -177.06653375 156.36175567 -186.94807434 152.56738281 C-198.98155686 147.94661328 -211.01259516 143.31957133 -223.04003906 138.68310547 C-226.52267963 137.34074619 -230.00625211 136.0008796 -233.49121094 134.66455078 C-237.49077326 133.13076675 -241.48602476 131.58612643 -245.48046875 130.0390625 C-247.10952148 129.41729126 -247.10952148 129.41729126 -248.77148438 128.78295898 C-256.71945976 125.68543152 -263.58677325 122.5764535 -267.60546875 114.5390625 C-268.28967548 108.50245374 -268.61560948 102.25584503 -265.79296875 96.7265625 C-262.28862905 92.46810467 -258.32796057 90.84567453 -253.33984375 88.85546875 C-252.5076683 88.51465271 -251.67549286 88.17383667 -250.81809998 87.82269287 C-240.16264481 83.48983897 -229.41329273 79.39233496 -218.66796875 75.2890625 C-216.38463913 74.41439264 -214.10143884 73.5393851 -211.81835938 72.6640625 C-207.09180419 70.8522184 -202.36470528 69.04180381 -197.63720703 67.23242188 C-187.69437177 63.42567085 -177.75838909 59.60112516 -167.82223511 55.77697754 C-162.41696099 53.6968544 -157.01118838 51.61802752 -151.60546875 49.5390625 C-149.43879972 48.7057353 -147.27213306 47.87240197 -145.10546875 47.0390625 C-138.60546875 44.5390625 -138.60546875 44.5390625 -132.10546875 42.0390625 C-130.49699821 41.42041824 -130.49699821 41.42041824 -128.85603333 40.78927612 C-126.68748789 39.95522253 -124.5189393 39.12117714 -122.35038757 38.28713989 C-116.96244037 36.21489332 -111.57454644 34.14250844 -106.18676758 32.06982422 C-96.09469218 28.18756027 -86.00208833 24.30668693 -75.90768433 20.43048096 C-71.17450264 18.61286671 -66.44161089 16.79449817 -61.70874023 14.97607422 C-59.46702256 14.11502134 -57.22516516 13.25433215 -54.9831543 12.39404297 C-51.86080259 11.19592851 -48.73883807 9.99681501 -45.6171875 8.796875 C-44.64965546 8.42500061 -43.68212341 8.05312622 -42.68527222 7.66998291 C-35.90955486 5.05875518 -29.16571844 2.37695267 -22.44458008 -0.37158203 C-14.53270588 -3.40733598 -7.87149088 -3.0273066 0 0 Z M-16.78076172 38.05761719 C-18.09353592 38.56261749 -18.09353592 38.56261749 -19.43283081 39.07781982 C-20.8756694 39.63871307 -20.8756694 39.63871307 -22.34765625 40.2109375 C-23.35684113 40.60017395 -24.366026 40.9894104 -25.40579224 41.39044189 C-28.76520829 42.68692229 -32.12280737 43.98804531 -35.48046875 45.2890625 C-37.84100964 46.20087349 -40.20168881 47.11232657 -42.5625 48.0234375 C-47.47547468 49.91983032 -52.38784558 51.8177752 -57.29980469 53.71679688 C-67.33253372 57.59426006 -77.37243081 61.45304634 -87.41241455 65.31167603 C-91.69951885 66.95960729 -95.98614735 68.60877436 -100.27279663 70.25788879 C-109.17109356 73.68107493 -118.07020057 77.10213838 -126.97064209 80.51974487 C-161.83806225 93.90084971 -161.83806225 93.90084971 -196.60546875 107.5390625 C-194.02507744 109.25932337 -191.98153697 110.26172433 -189.12060547 111.34472656 C-188.20138809 111.69488327 -187.28217072 112.04503998 -186.33509827 112.4058075 C-185.3286174 112.7849379 -184.32213654 113.1640683 -183.28515625 113.5546875 C-182.22433334 113.95786697 -181.16351044 114.36104645 -180.07054138 114.77644348 C-177.75967139 115.65438599 -175.44817575 116.53068304 -173.13613892 117.4055481 C-167.51275797 119.53375666 -161.89329138 121.67224272 -156.27374458 123.81054878 C-154.31093359 124.55732191 -152.34796557 125.30368132 -150.38499451 126.05003357 C-136.87811065 131.18756424 -123.39664603 136.39052904 -109.91796875 141.6015625 C-105.19668887 143.42597352 -100.47529199 145.2500817 -95.75390625 147.07421875 C-94.59143875 147.52340668 -93.42897125 147.9725946 -92.23127747 148.43539429 C-80.30096159 153.04466903 -68.36642932 157.64296568 -56.42977905 162.23580933 C-54.21045796 163.0898097 -51.99123635 163.94406863 -49.77212524 164.7986145 C-48.20233414 165.40308914 -48.20233414 165.40308914 -46.60083008 166.01977539 C-45.58500351 166.41097061 -44.56917694 166.80216583 -43.52256775 167.20521545 C-40.63513184 168.31464994 -37.74518553 169.41733534 -34.85498047 170.51953125 C-31.50313292 171.80020257 -28.16817403 173.11346971 -24.84423828 174.46484375 C-24.1166481 174.75447998 -23.38905792 175.04411621 -22.63941956 175.3425293 C-20.74375301 176.09805111 -18.85410516 176.86862848 -16.96508789 177.640625 C-9.47513452 179.6436065 -2.81886954 176.32029158 4.10546875 173.62109375 C5.16063187 173.21649933 6.21579498 172.81190491 7.30293274 172.39505005 C10.79452923 171.05420072 14.28199131 169.70292405 17.76953125 168.3515625 C20.23649439 167.40179247 22.70367349 166.45260318 25.17114258 165.50415039 C30.98221719 163.26897554 36.79035641 161.02627832 42.5972929 158.78037739 C49.3571404 156.16612369 56.11998017 153.55964626 62.8828125 150.953125 C72.33879876 147.30741478 81.79299773 143.65710352 91.24609375 140.00390625 C104.35033595 134.94016436 117.45871072 129.8872081 130.57022095 124.84231567 C132.78954204 123.9883153 135.00876365 123.13405637 137.22787476 122.2795105 C149.26341176 117.64502323 161.30765231 113.03814708 173.39453125 108.5390625 C170.83290189 105.97743314 167.99836095 105.0821861 164.671875 103.8359375 C163.96549896 103.56620621 163.25912292 103.29647491 162.53134155 103.01856995 C160.96877996 102.42259622 159.40527172 101.82910029 157.8409729 101.23770142 C154.36127666 99.92201706 150.88618034 98.59436409 147.41062927 97.26777649 C145.49742712 96.53772671 143.58397689 95.80832677 141.67030334 95.07951355 C130.54024779 90.83928007 119.43188562 86.54308071 108.3225708 82.24887085 C102.22746246 79.89327616 96.13134986 77.54028436 90.03515625 75.1875 C88.81885529 74.7180748 87.60255432 74.2486496 86.34939575 73.76499939 C68.2954208 66.79837247 50.23484698 59.84890928 32.16978455 52.91108704 C26.5216803 50.74170724 20.87499793 48.5686961 15.22990417 46.39149475 C11.98645259 45.1411201 8.74200923 43.89333588 5.49728394 42.64627075 C4.02932451 42.08142038 2.56180391 41.51542805 1.09475708 40.94821167 C-0.86927014 40.18899941 -2.83479664 39.43381348 -4.80078125 38.6796875 C-6.4252417 38.05368652 -6.4252417 38.05368652 -8.08251953 37.41503906 C-11.69111911 36.162121 -13.30727109 36.71387779 -16.78076172 38.05761719 Z " fill="#000000" transform="translate(267.60546875,38.4609375)"/>
<path d="M0 0 C0.87179901 0.29341278 1.74359802 0.58682556 2.64181519 0.88912964 C3.52579987 1.20874664 4.40978455 1.52836365 5.32055664 1.85766602 C6.14484161 2.14916534 6.96912659 2.44066467 7.81838989 2.74099731 C10.37194513 3.66288465 12.91158265 4.61615705 15.44946289 5.58032227 C16.36517563 5.92647079 17.28088837 6.27261932 18.22434998 6.6292572 C20.13838418 7.35434841 22.05171379 8.08130212 23.96435547 8.81005859 C26.90379518 9.92805377 29.8473811 11.03462371 32.79125977 12.14086914 C34.65675647 12.84916297 36.5220004 13.558123 38.38696289 14.26782227 C39.26912979 14.598069 40.15129669 14.92831573 41.06019592 15.26856995 C41.86871506 15.57906784 42.67723419 15.88956573 43.51025391 16.20947266 C44.22399673 16.4802211 44.93773956 16.75096954 45.67311096 17.02992249 C47.32055664 17.85766602 47.32055664 17.85766602 48.32055664 19.85766602 C42.53899088 22.1427918 36.75486981 24.42127657 30.96826172 26.69360352 C28.99944258 27.46781627 27.0313385 28.24384995 25.06396484 29.02172852 C22.23858968 30.13848885 19.41072114 31.24870962 16.58227539 32.35766602 C15.7009343 32.70764648 14.8195932 33.05762695 13.9115448 33.41821289 C12.68060844 33.89871094 12.68060844 33.89871094 11.42480469 34.38891602 C10.70310593 34.6731543 9.98140717 34.95739258 9.23783875 35.25024414 C7.32055664 35.85766602 7.32055664 35.85766602 4.32055664 35.85766602 C4.32055664 36.51766602 4.32055664 37.17766602 4.32055664 37.85766602 C4.95123047 37.95088135 5.5819043 38.04409668 6.23168945 38.14013672 C10.55953384 39.14547458 14.59934868 40.74711337 18.74243164 42.33813477 C19.68921783 42.69824646 20.63600403 43.05835815 21.61148071 43.42938232 C24.76605257 44.63063026 27.9183285 45.8377825 31.07055664 47.04516602 C33.30957128 47.89962479 35.54866801 48.7538685 37.7878418 49.60791016 C60.40820381 58.24396585 82.99186922 66.97556492 105.57545471 75.70721436 C120.75834767 81.57564439 135.95328967 87.41275542 151.14819336 93.25 C152.15938232 93.63881851 153.17057129 94.02763702 154.21240234 94.42823792 C156.16954442 95.17993853 158.1273701 95.92986215 160.0859375 96.67784119 C164.60256862 98.40640212 169.10047269 100.16576926 173.57104492 102.01049805 C174.3923439 102.34473282 175.21364288 102.67896759 176.05982971 103.02333069 C177.57627057 103.64269522 179.08811438 104.27350376 180.59385681 104.91844177 C188.53374444 108.13965857 194.29975469 105.28977861 201.84008789 102.37719727 C202.78545914 102.01708557 203.73083038 101.65697388 204.70484924 101.28594971 C207.84973034 100.08622081 210.99139123 98.87828811 214.13305664 97.67016602 C216.36744476 96.81552665 218.60198573 95.9612868 220.83666992 95.10742188 C228.00156692 92.36684783 235.16160481 89.61372717 242.32055664 86.85766602 C243.49628235 86.40512451 244.67200806 85.95258301 245.88336182 85.48632812 C258.92768059 80.46434534 271.96706038 75.42963076 285.00415039 70.38891602 C301.37686355 64.0585925 317.76185176 57.76027708 334.14819336 51.46533203 C335.15962402 51.07659409 336.17105469 50.68785614 337.21313477 50.28733826 C339.16830537 49.53604993 341.12370182 48.78534906 343.0793457 48.03529358 C347.62039687 46.29145638 352.15465757 44.53306995 356.67651367 42.73999023 C357.51134781 42.41026718 358.34618195 42.08054413 359.20631409 41.74082947 C360.75847204 41.12655802 362.30900119 40.5081478 363.85752869 39.88478088 C366.8316361 38.70942879 369.09125833 37.85766602 372.32055664 37.85766602 C372.32055664 37.19766602 372.32055664 36.53766602 372.32055664 35.85766602 C371.68158447 35.76235596 371.0426123 35.6670459 370.38427734 35.56884766 C366.19422556 34.59621073 362.30288343 33.04098268 358.30102539 31.47875977 C357.44245438 31.14723404 356.58388336 30.81570831 355.69929504 30.47413635 C352.96740271 29.41825693 350.23771915 28.35679491 347.50805664 27.29516602 C345.65207994 26.57669732 343.79596168 25.85859416 341.93969727 25.14086914 C337.39833253 23.38403315 332.85894006 21.62218848 328.32055664 19.85766602 C331.07490782 17.64942222 333.66200989 16.14007737 336.93041992 14.81713867 C337.83881622 14.44730865 338.74721252 14.07747864 339.68313599 13.69644165 C343.83633962 12.04692744 347.99040702 10.40038995 352.15356445 8.77612305 C354.34261495 7.91602296 356.52663757 7.04301132 358.70532227 6.15698242 C361.86054407 4.87415829 365.02913608 3.63163846 368.20336914 2.39672852 C369.1672757 1.9969278 370.13118225 1.59712708 371.1242981 1.18521118 C378.22833113 -1.50313286 382.39297193 -1.0247997 389.32055664 1.85766602 C391.0741682 2.4972272 392.8284181 3.13504045 394.58325195 3.77124023 C396.44015583 4.48035124 398.29524089 5.19423947 400.14868164 5.91235352 C401.14132019 6.29577911 402.13395874 6.67920471 403.15667725 7.07424927 C405.23819229 7.88056855 407.31885141 8.68910064 409.39868164 9.49975586 C412.57158378 10.73306526 415.75056633 11.94972594 418.92993164 13.16625977 C420.96157763 13.9556059 422.99284134 14.74593679 425.02368164 15.53735352 C425.96753723 15.89586395 426.91139282 16.25437439 427.8838501 16.62374878 C434.28406686 19.14797314 439.04920683 21.75348794 443.19555664 27.42016602 C445.05143094 33.09089304 445.49645318 39.31101034 443.59399414 45.04907227 C440.06816362 51.68508661 434.44548585 54.50179844 427.69165039 57.04516602 C426.55088295 57.48721878 426.55088295 57.48721878 425.3870697 57.9382019 C422.84727619 58.91992541 420.30275548 59.88873589 417.75805664 60.85766602 C415.93629836 61.558856 414.11485405 62.26086218 412.29370117 62.96362305 C408.3711659 64.47541244 404.44654302 65.98160421 400.52026367 67.48364258 C394.23993618 69.8867169 387.9654451 72.30478482 381.69165039 74.72485352 C359.90049018 83.12651136 338.09116216 91.4806947 316.27792358 99.8248291 C299.67481394 106.17681981 283.08975782 112.57502538 266.50805664 118.98266602 C249.00078342 125.74758496 231.48526938 132.48975612 213.94555664 139.17016602 C213.05057465 139.51122375 212.15559265 139.85228149 211.23348999 140.20367432 C208.75503354 141.1478124 206.27618638 142.0909143 203.79711914 143.03344727 C203.07503769 143.30835495 202.35295624 143.58326263 201.60899353 143.86650085 C187.99582245 149.03389088 178.82723529 145.68097794 165.75805664 140.54516602 C163.99590932 139.86690141 162.2331982 139.19010002 160.4699707 138.51464844 C155.72511734 136.69203756 150.98856585 134.84873417 146.25360107 133.00061035 C141.38015629 131.10153373 136.50036534 129.21890443 131.62133789 127.33422852 C123.43529918 124.16934755 115.25383761 120.99284995 107.07446289 117.81079102 C94.23107763 112.81576349 81.37148787 107.86330281 68.50805664 102.92016602 C66.89445755 102.29993561 66.89445755 102.29993561 65.2482605 101.66717529 C57.6060663 98.72969909 49.96338323 95.79349638 42.32055664 92.85766602 C37.94811928 91.17808658 33.57572188 89.49840321 29.20336914 87.81860352 C28.12133713 87.40294128 27.03930511 86.98727905 25.92448425 86.559021 C20.51912574 84.4821356 15.114527 82.40330799 9.71142578 80.32055664 C7.57463273 79.49697057 5.4378326 78.67340286 3.30102539 77.84985352 C1.71660393 77.2391098 1.71660393 77.2391098 0.10017395 76.61602783 C-6.6385707 74.02103132 -13.38443491 71.44540995 -20.13502502 68.88139343 C-24.68783178 67.15024155 -29.23709091 65.40989296 -33.78579712 63.66799927 C-35.94334805 62.84433602 -38.10248347 62.02480988 -40.26327515 61.20968628 C-43.2473535 60.08351353 -46.22555839 58.94296403 -49.20288086 57.79907227 C-50.07849167 57.47282867 -50.95410248 57.14658508 -51.85624695 56.81045532 C-58.02480737 54.4161599 -62.56804519 51.74324351 -66.55444336 46.29516602 C-68.41031766 40.624439 -68.85533989 34.4043217 -66.95288086 28.66625977 C-62.7550281 20.76542307 -55.53196937 18.35520461 -47.64819336 15.38110352 C-46.57952026 14.9697818 -45.51084717 14.55846008 -44.40979004 14.13467407 C-41.00285386 12.82552672 -37.59131198 11.52889702 -34.17944336 10.23266602 C-31.88355086 9.35329159 -29.58797417 8.47309218 -27.29272461 7.59204102 C-22.23383849 5.65116374 -17.17196673 3.7183126 -12.1072998 1.79257202 C-9.63809624 0.87606649 -9.63809624 0.87606649 -7.16026306 -0.33296204 C-4.18047601 -1.30512299 -2.93270819 -1.00949153 0 0 Z " fill="#000000" transform="translate(67.679443359375,219.142333984375)"/>
<path d="M0 0 C1.32885475 0.51991013 1.32885475 0.51991013 2.68455505 1.05032349 C4.5491495 1.78148021 6.41233501 2.51623915 8.27416992 3.25439453 C11.11262993 4.37945775 13.9552564 5.49339707 16.79882812 6.60546875 C18.61613984 7.31966545 20.43320563 8.03448829 22.25 8.75 C23.09389786 9.08135956 23.93779572 9.41271912 24.80726624 9.75411987 C29.1695016 11.4867455 33.39384744 13.32894169 37.55859375 15.5078125 C35.13679977 17.12234182 33.31634587 18.08645176 30.65380859 19.09594727 C29.48777603 19.54134605 29.48777603 19.54134605 28.29818726 19.9957428 C27.46373077 20.31038986 26.62927429 20.62503693 25.76953125 20.94921875 C24.91050201 21.27695786 24.05147278 21.60469696 23.16641235 21.94236755 C20.42346518 22.98853826 17.67871007 24.0298481 14.93359375 25.0703125 C12.18147808 26.11470634 9.42979699 27.16018343 6.67935181 28.20896912 C4.96761546 28.86158255 3.25488667 29.51159967 1.54110718 30.15882874 C-2.23070969 31.3592019 -2.23070969 31.3592019 -5.44140625 33.5078125 C-4.90541809 33.71396179 -4.36942993 33.92011108 -3.81719971 34.13250732 C132.4296875 86.53515625 132.4296875 86.53515625 135.47015381 87.70623779 C137.45779926 88.46961034 139.44692161 89.22914939 141.43756104 89.98468018 C146.83566929 92.03966385 152.18425155 94.17687046 157.50683594 96.42089844 C158.66710297 96.89804291 159.82737 97.37518738 161.02279663 97.86679077 C163.25066953 98.78438544 165.46917414 99.72519791 167.6756897 100.69302368 C173.89297246 103.21942903 177.78151756 104.02403389 184.1088562 101.5682373 C184.91726959 101.21829712 185.72568298 100.86835693 186.55859375 100.5078125 C188.25168335 99.88426275 189.94622502 99.26464363 191.64208984 98.64868164 C193.45686306 97.95055932 195.2701088 97.24845696 197.08203125 96.54296875 C198.57971291 95.96514145 198.57971291 95.96514145 200.10765076 95.37564087 C203.38429588 94.11061187 206.65892122 92.84043802 209.93359375 91.5703125 C212.24813897 90.67579463 214.56283902 89.78167729 216.87768555 88.88793945 C221.69395838 87.0280751 226.50955875 85.16648467 231.32470703 83.30371094 C241.57737009 79.33900653 251.83844144 75.39619299 262.09933472 71.45285034 C267.51323922 69.37195449 272.92649857 67.28938162 278.33984375 65.20703125 C286.02695865 62.2502996 293.71445883 59.29457261 301.40234375 56.33984375 C321.13173198 48.756509 340.85185061 41.14982001 360.55859375 33.5078125 C351.52630007 29.18011617 342.25411982 25.66534481 332.87109375 22.1953125 C331.37942248 21.64033616 329.88788505 21.08499998 328.39648438 20.52929688 C324.78538028 19.18465755 321.17251177 17.84486956 317.55859375 16.5078125 C319.84529726 13.92103784 321.91552274 12.74873381 325.1184082 11.49902344 C326.5004821 10.95396149 326.5004821 10.95396149 327.91047668 10.39788818 C328.90423813 10.01650696 329.89799957 9.63512573 330.921875 9.2421875 C331.94661423 8.84453186 332.97135345 8.44687622 334.02714539 8.03717041 C336.19510724 7.19928944 338.3647382 6.36571631 340.53588867 5.53613281 C343.85405919 4.26434152 347.16233841 2.96892533 350.47070312 1.671875 C352.57886455 0.86051601 354.68757151 0.05057279 356.796875 -0.7578125 C357.78456375 -1.14729065 358.7722525 -1.5367688 359.78987122 -1.93804932 C369.27648282 -5.51286777 374.97349962 -3.15101776 384.14453125 0.3671875 C385.16028229 0.75344299 386.17603333 1.13969849 387.2225647 1.53765869 C389.36692585 2.35523047 391.51016438 3.17575198 393.65234375 3.99902344 C396.91150404 5.2493382 400.17611874 6.48454027 403.44140625 7.71875 C405.53029811 8.51731372 407.6188512 9.31676429 409.70703125 10.1171875 C410.67498627 10.48197205 411.64294128 10.84675659 412.64022827 11.22259521 C421.11869115 14.5068836 429.29364466 17.97791432 433.55859375 26.5078125 C434.27760383 32.85148375 434.55547629 38.86854857 431.24609375 44.5078125 C428.63244981 47.7328661 426.29218703 49.36059418 422.49194336 50.99780273 C421.51562958 51.4202829 420.5393158 51.84276306 419.53341675 52.27804565 C415.02543385 54.14160793 410.49689511 55.93412911 405.9375 57.66796875 C404.94104965 58.05013046 403.9445993 58.43229218 402.91795349 58.82603455 C399.65351863 60.07724699 396.387306 61.32374809 393.12109375 62.5703125 C390.80129425 63.45862396 388.48163538 64.34730276 386.16210938 65.23632812 C381.34836139 67.08101031 376.53401522 68.92411851 371.71923828 70.76611328 C361.73034599 74.58893946 351.74886482 78.43100197 341.76730347 82.2729187 C336.36475073 84.35212793 330.96164233 86.42989221 325.55859375 88.5078125 C323.39192446 89.34113902 321.22525779 90.17447235 319.05859375 91.0078125 C314.72526042 92.67447917 310.39192708 94.34114583 306.05859375 96.0078125 C304.45006279 96.62647942 304.45006279 96.62647942 302.80903625 97.25764465 C300.64089667 98.09154293 298.47275498 98.92543574 296.30461121 99.75932312 C290.91046303 101.83396825 285.51635058 103.90870614 280.12231445 105.98364258 C270.10454623 109.83709016 260.08644758 113.6896712 250.06710815 117.53903198 C245.41170848 119.32766838 240.75650674 121.11681961 236.10131836 122.90600586 C233.91424186 123.74643015 231.72707191 124.5866113 229.53979492 125.42651367 C226.47680137 126.60270511 223.41409371 127.77963653 220.3515625 128.95703125 C219.37927704 129.33068817 218.40699158 129.70434509 217.40524292 130.08932495 C212.28964216 132.05884111 207.18117717 134.04518108 202.08056641 136.05322266 C201.02702469 136.46772171 199.97348297 136.88222076 198.88801575 137.3092804 C196.87659503 138.1018803 194.86603806 138.89667687 192.85649109 139.6940155 C191.95679092 140.048694 191.05709076 140.4033725 190.13012695 140.76879883 C188.94710747 141.23761223 188.94710747 141.23761223 187.7401886 141.71589661 C180.16733535 144.4648318 173.88450748 144.03523485 166.4609375 141.0390625 C165.04820731 140.48128179 163.63527234 139.92401955 162.22216797 139.3671875 C161.46957703 139.06554687 160.71698608 138.76390625 159.94158936 138.453125 C155.6701007 136.75866463 151.3631602 135.15767297 147.0625 133.5390625 C143.08117284 132.03090715 139.10115262 130.51931139 135.12109375 129.0078125 C134.05179626 128.60174774 132.98249878 128.19568298 131.88079834 127.77731323 C108.2695243 118.80660599 84.70836858 109.70737552 61.14978027 100.59942627 C49.92462803 96.26062901 38.69355445 91.93730014 27.46060181 87.6187439 C24.26614086 86.39052032 21.07189198 85.16174663 17.87768555 83.93286133 C7.91674147 80.10133948 -2.04603064 76.27469652 -12.01338196 72.45986938 C-16.71399556 70.66042124 -21.41372141 68.85866109 -26.1133728 67.05670166 C-28.32958499 66.20768659 -30.54622212 65.35977968 -32.76333618 64.51312256 C-43.27117366 60.50026744 -53.76647944 56.45451812 -64.17578125 52.19140625 C-64.95506485 51.88048035 -65.73434845 51.56955444 -66.5372467 51.24920654 C-71.51007146 49.17924644 -75.24768883 47.07318874 -77.7578125 42.0703125 C-79.51623983 35.47872203 -79.69456016 29.15335964 -76.75390625 22.9453125 C-72.89612222 18.8789996 -69.16773915 16.14772114 -63.9609375 14.0625 C-62.89133789 13.62969727 -61.82173828 13.19689453 -60.71972656 12.75097656 C-59.57600586 12.29948242 -58.43228516 11.84798828 -57.25390625 11.3828125 C-56.07022461 10.91069336 -54.88654297 10.43857422 -53.66699219 9.95214844 C-51.18331174 8.96432846 -48.69842846 7.98032107 -46.21142578 7.00097656 C-42.50473012 5.5384154 -38.81511485 4.03516464 -35.125 2.53125 C-32.81428755 1.6055581 -30.50310679 0.68103412 -28.19140625 -0.2421875 C-27.11608643 -0.68449707 -26.0407666 -1.12680664 -24.93286133 -1.58251953 C-23.9198999 -1.98067871 -22.90693848 -2.37883789 -21.86328125 -2.7890625 C-20.9825293 -3.14323242 -20.10177734 -3.49740234 -19.19433594 -3.86230469 C-12.41838687 -5.4126726 -6.20356197 -2.47154011 0 0 Z " fill="#000000" transform="translate(78.44140625,332.4921875)"/>
</svg>
