<?xml version="1.0" encoding="UTF-8"?>
<svg version="1.1" xmlns="http://www.w3.org/2000/svg" width="512" height="512">
<path d="M0 0 C4.15419575 1.88133429 7.99047088 4.18114142 11.875 6.5625 C13.59957806 7.58964112 15.32417357 8.61675425 17.04978943 9.64215088 C18.84013716 10.70870171 20.62601435 11.7824682 22.41162109 12.85693359 C28.12116626 16.28103376 33.91071211 19.56606064 39.6875 22.875 C43.79468093 25.24480975 47.89789582 27.62141556 52 30 C52.84385254 30.48823242 53.68770508 30.97646484 54.55712891 31.47949219 C56.70945075 32.72853127 58.85596975 33.98679662 61 35.25 C62.7015625 36.24773438 62.7015625 36.24773438 64.4375 37.265625 C67 39 67 39 69 42 C69.09005737 45.06242371 69.09005737 45.06242371 68.87451172 48.87963867 C68.80209064 50.32368589 68.73093282 51.76779686 68.66085815 53.21195984 C68.62124844 53.9777857 68.58163872 54.74361156 68.5408287 55.53264427 C68.31063607 60.47306325 68.21868366 65.41838275 68.10467339 70.36260509 C67.99699852 74.69566277 67.83992418 79.01532861 67.5703125 83.34155273 C65.79255273 101.21345126 65.79255273 101.21345126 71.20975494 117.61889648 C77.51105588 124.04360756 86.09897215 127.33642478 94.34817505 130.49291992 C100.29863151 132.94862755 105.63869647 136.27399451 111.125 139.625 C113.00057744 140.72481777 114.87785647 141.82174607 116.7578125 142.9140625 C117.62438477 143.42485352 118.49095703 143.93564453 119.38378906 144.46191406 C121.19272196 145.52539645 123.0076013 146.57880517 124.82714844 147.62402344 C125.72723633 148.14770508 126.62732422 148.67138672 127.5546875 149.2109375 C128.36147949 149.6754834 129.16827148 150.1400293 129.99951172 150.61865234 C132 152 132 152 134 155 C134.21474816 157.63015163 134.3144002 160.15663253 134.32226562 162.78857422 C134.33219543 163.58077362 134.34212524 164.37297302 134.35235596 165.18917847 C134.3815766 167.81105009 134.39519837 170.43267977 134.40625 173.0546875 C134.4177542 174.87688199 134.42926966 176.6990764 134.4407959 178.52127075 C134.461809 182.34280526 134.47349895 186.16425569 134.48046875 189.98583984 C134.49144163 194.88116757 134.53950319 199.77538356 134.59641266 204.67036247 C134.63367234 208.43477621 134.64407682 212.19892223 134.6471405 215.96350479 C134.65319259 217.76805835 134.66924703 219.57260725 134.69551086 221.37697983 C134.7296569 223.90305777 134.72587165 226.42642115 134.71289062 228.95263672 C134.73132019 229.69670776 134.74974976 230.44077881 134.76873779 231.20739746 C134.72302973 234.0491912 134.5721031 236.31375454 132.70985031 238.54755211 C129.62480091 241.16705802 126.15228476 243.24793507 122.640625 245.2421875 C121.61984863 245.82613281 120.59907227 246.41007813 119.54736328 247.01171875 C118.4592334 247.62660156 117.37110352 248.24148438 116.25 248.875 C114.51467082 249.86563195 112.77934694 250.85627335 111.04434204 251.84747314 C109.24182225 252.8763144 107.43790047 253.90266366 105.63378906 254.92871094 C99.78254414 258.25978171 93.95523942 261.63234347 88.125 265 C87.08762695 265.59796387 86.05025391 266.19592773 84.98144531 266.81201172 C83.97952148 267.38967285 82.97759766 267.96733398 81.9453125 268.5625 C80.96723633 269.12066406 79.98916016 269.67882812 78.98144531 270.25390625 C76.90404252 271.47054438 74.85264277 272.7322206 72.82324219 274.02734375 C65.03305274 278.91587518 65.03305274 278.91587518 60.40234375 279.29296875 C55.49249037 277.42711173 51.080993 274.97696572 46.5625 272.3125 C45.06916138 271.44987549 45.06916138 271.44987549 43.5456543 270.56982422 C40.35719485 268.72428059 37.17843741 266.86274122 34 265 C31.85985177 263.75569004 29.71922957 262.5121949 27.578125 261.26953125 C23.58589542 258.94939475 19.5972538 256.62334837 15.61328125 254.2890625 C14.24357178 253.49483887 14.24357178 253.49483887 12.84619141 252.68457031 C10.82355675 251.48743709 8.82248846 250.25353367 6.83740234 248.99511719 C5.79148926 248.34446289 4.74557617 247.69380859 3.66796875 247.0234375 C2.72590576 246.42192871 1.78384277 245.82041992 0.81323242 245.20068359 C-2.69721166 243.70243106 -4.36328767 243.94196067 -8 245 C-10.70765929 246.22674176 -10.70765929 246.22674176 -13.359375 247.8515625 C-14.3805542 248.44864014 -15.4017334 249.04571777 -16.45385742 249.66088867 C-17.54158447 250.30904541 -18.62931152 250.95720215 -19.75 251.625 C-21.47977369 252.63987113 -23.20955639 253.65472726 -24.93986511 254.66868591 C-26.7429453 255.72674955 -28.5436914 256.78870637 -30.34423828 257.85107422 C-36.26693618 261.33977583 -42.22987802 264.75892858 -48.1875 268.1875 C-50.30607938 269.41000064 -52.42457437 270.63264756 -54.54296875 271.85546875 C-55.49606934 272.39864746 -56.44916992 272.94182617 -57.43115234 273.50146484 C-58.99094258 274.41136719 -60.53396916 275.35210547 -62.04150391 276.34619141 C-64.8633041 278.17805115 -66.81846511 278.99069052 -70.19921875 279.1640625 C-75.90698967 277.41594767 -80.71314319 274.43727694 -85.8125 271.375 C-87.54392151 270.35477935 -89.27535439 269.33457739 -91.00746155 268.31552124 C-92.80545072 267.25596743 -94.60055968 266.19164883 -96.39550781 265.12695312 C-101.02476193 262.38746473 -105.69065708 259.71313309 -110.35644531 257.03637695 C-118.61652019 252.29670191 -126.86751949 247.53905811 -135.0625 242.6875 C-135.66989014 242.33252441 -136.27728027 241.97754883 -136.90307617 241.61181641 C-140.88301206 239.23397588 -140.88301206 239.23397588 -142 237 C-142.11904154 234.39749184 -142.17832778 231.82089977 -142.19287109 229.21728516 C-142.20104858 228.41387192 -142.20922607 227.61045868 -142.21765137 226.78269958 C-142.24250924 224.11816152 -142.25902092 221.45367668 -142.2734375 218.7890625 C-142.27876118 217.88018658 -142.28408485 216.97131065 -142.28956985 216.03489304 C-142.31630111 211.22574456 -142.33567747 206.41662206 -142.35009766 201.60742188 C-142.3667601 196.63480079 -142.41155101 191.66284061 -142.4624691 186.69046974 C-142.49608472 182.87121803 -142.50766872 179.05212443 -142.51332474 175.23273849 C-142.52005128 173.39945795 -142.53530966 171.56618831 -142.55921555 169.7330513 C-142.59075389 167.16864981 -142.59092171 164.60604754 -142.58349609 162.04150391 C-142.59990143 161.2829158 -142.61630676 160.5243277 -142.63320923 159.74275208 C-142.58795773 155.92949183 -142.35085573 154.35460704 -139.62239075 151.5969696 C-138.7570018 151.06996964 -137.89161285 150.54296967 -137 150 C-136.16122314 149.4743042 -135.32244629 148.9486084 -134.45825195 148.40698242 C-133.56066162 147.89498291 -132.66307129 147.3829834 -131.73828125 146.85546875 C-130.71387939 146.26805908 -129.68947754 145.68064941 -128.6340332 145.07543945 C-127.53792725 144.45241943 -126.44182129 143.82939941 -125.3125 143.1875 C-123.57573873 142.19325372 -121.83898146 141.19900035 -120.10246277 140.20433044 C-118.29297266 139.16850931 -116.48246959 138.13447501 -114.671875 137.10058594 C-108.70697602 133.69167553 -102.76117254 130.24961482 -96.8125 126.8125 C-94.69416554 125.589575 -92.57568525 124.36690257 -90.45703125 123.14453125 C-89.56991455 122.63253174 -88.68279785 122.12053223 -87.76879883 121.59301758 C-85 120 -85 120 -81.37739563 118.34841919 C-79.50348011 117.34031376 -79.50348011 117.34031376 -78 116 C-76.98439628 112.67315107 -76.98439628 112.67315107 -77.19287109 108.83227539 C-77.1901268 108.11795853 -77.18738251 107.40364166 -77.18455505 106.66767883 C-77.18329921 105.12018939 -77.19823097 103.57262055 -77.22751999 102.02540779 C-77.2738873 99.57387436 -77.27829855 97.1253743 -77.27212524 94.67344666 C-77.26819681 90.35286437 -77.30164279 86.0335119 -77.347229 81.7131958 C-77.41963599 74.80206852 -77.46082845 67.89160805 -77.45399857 60.98010063 C-77.46084397 58.56811138 -77.49910245 56.15798334 -77.53939819 53.74635315 C-77.54371702 52.26327844 -77.54676506 50.7801993 -77.54833984 49.29711914 C-77.56279144 48.00568497 -77.57724304 46.71425079 -77.59213257 45.38368225 C-76.84427552 41.11012806 -75.30671286 39.7095225 -72 37 C-69.45825195 35.29345703 -69.45825195 35.29345703 -66.73828125 33.7578125 C-65.71428223 33.17386719 -64.6902832 32.58992188 -63.63525391 31.98828125 C-62.53874512 31.37339844 -61.44223633 30.75851563 -60.3125 30.125 C-58.5704058 29.13444086 -56.8283188 28.14386878 -55.08666992 27.15252686 C-53.27577081 26.12303551 -51.46296396 25.09696634 -49.64990234 24.07128906 C-43.78752645 20.75024735 -37.95835567 17.37167021 -32.125 14 C-31.08770752 13.40203613 -30.05041504 12.80407227 -28.98168945 12.18798828 C-27.97968506 11.61032715 -26.97768066 11.03266602 -25.9453125 10.4375 C-24.96594727 9.87804688 -23.98658203 9.31859375 -22.97753906 8.7421875 C-20.91509479 7.535431 -18.8764057 6.28749383 -16.85839844 5.0078125 C-5.90381272 -1.83065028 -5.90381272 -1.83065028 0 0 Z M-10.06640625 18.7109375 C-11.10168457 19.29182129 -12.13696289 19.87270508 -13.20361328 20.47119141 C-14.3120459 21.09944824 -15.42047852 21.72770508 -16.5625 22.375 C-17.68897949 23.00970215 -18.81545898 23.6444043 -19.97607422 24.29833984 C-27.85966921 28.75301479 -35.69452644 33.28448808 -43.4765625 37.9140625 C-46.96003856 39.98631398 -50.47581662 41.99782898 -54 44 C-51.54622942 46.73279465 -48.8688304 48.3751318 -45.6875 50.1875 C-44.62047852 50.79916016 -43.55345703 51.41082031 -42.45410156 52.04101562 C-41.31424805 52.68748047 -40.17439453 53.33394531 -39 54 C-36.63986339 55.34241486 -34.28077414 56.68666211 -31.921875 58.03125 C-31.03903839 58.53344055 -31.03903839 58.53344055 -30.1383667 59.04577637 C-26.47998063 61.13313161 -22.86162026 63.27588295 -19.265625 65.46875 C-18.41097656 65.984375 -17.55632812 66.5 -16.67578125 67.03125 C-15.09745458 67.9868874 -13.5266208 68.9550488 -11.96484375 69.9375 C-11.25972656 70.3603125 -10.55460937 70.783125 -9.828125 71.21875 C-9.2290332 71.58935547 -8.62994141 71.95996094 -8.01269531 72.34179688 C-4.22401249 73.58079359 -0.9684501 72.45549983 2.53515625 70.80761719 C3.36917969 70.30907227 4.20320313 69.81052734 5.0625 69.296875 C6.01447266 68.73436035 6.96644531 68.1718457 7.94726562 67.59228516 C9.45836914 66.680354 9.45836914 66.680354 11 65.75 C12.04349609 65.13044434 13.08699219 64.51088867 14.16210938 63.87255859 C16.34340705 62.57671544 18.52241184 61.27700563 20.69921875 59.97363281 C24.96973421 57.4201678 29.25619348 54.89420222 33.54296875 52.36816406 C37.69893874 49.91822799 41.84980187 47.45969728 46 45 C42.99790321 42.65018779 39.89663553 40.70675541 36.58984375 38.8125 C35.52572266 38.20092041 34.46160156 37.58934082 33.36523438 36.95922852 C32.23408203 36.31268311 31.10292969 35.6661377 29.9375 35 C28.18148516 33.9935479 26.42587441 32.98639377 24.6703186 31.97914124 C23.4906273 31.30234545 22.31075629 30.6258628 21.13070679 29.94969177 C17.45246721 27.84036849 13.78635164 25.71155961 10.12890625 23.56640625 C8.81901733 22.79973633 8.81901733 22.79973633 7.48266602 22.01757812 C5.85754494 21.0651028 4.23425655 20.10949191 2.61303711 19.15039062 C-3.14514562 15.78504267 -4.3449112 15.48958738 -10.06640625 18.7109375 Z M-62 58 C-62.39590002 65.38749331 -62.69686826 72.77266905 -62.88080692 80.16866112 C-62.96916359 83.60472137 -63.08858134 87.03348004 -63.2824707 90.46533203 C-64.71840477 104.88803063 -64.71840477 104.88803063 -60.49810791 118.13198853 C-56.60454465 121.60473053 -52.12108501 123.42905183 -47.24874878 125.15100098 C-43.86394328 126.42891009 -40.90072156 128.26451025 -37.828125 130.15234375 C-35.63585906 131.41483102 -33.44315912 132.67656499 -31.25 133.9375 C-29.02581133 135.21704762 -26.80184418 136.49698038 -24.578125 137.77734375 C-23.14581543 138.60093384 -23.14581543 138.60093384 -21.68457031 139.44116211 C-19.86423568 140.49816799 -18.06162602 141.58618934 -16.27636719 142.70141602 C-14.1472518 144.16516892 -14.1472518 144.16516892 -12 144 C-11.79102148 136.67232541 -11.6313384 129.34529762 -11.53369045 122.01524162 C-11.48680935 118.61097506 -11.4232942 115.2087534 -11.32104492 111.80566406 C-11.20410571 107.88892545 -11.1607997 103.97300026 -11.12109375 100.0546875 C-11.07464218 98.83884979 -11.02819061 97.62301208 -10.98033142 96.37033081 C-10.84562635 90.15577851 -10.84562635 90.15577851 -13.83210754 84.99394226 C-16.15299502 83.41766066 -18.46168628 82.18927405 -21 81 C-22.12253174 80.32718994 -23.24506348 79.65437988 -24.40161133 78.96118164 C-25.4511499 78.36684326 -26.50068848 77.77250488 -27.58203125 77.16015625 C-28.1623259 76.83011093 -28.74262054 76.50006561 -29.34049988 76.16001892 C-31.16274081 75.1243742 -32.98747593 74.09323074 -34.8125 73.0625 C-36.61948946 72.03823932 -38.4259258 71.01301064 -40.23214722 69.98739624 C-41.41581193 69.31540192 -42.59982847 68.64402689 -43.78421021 67.97329712 C-48.81466721 65.11992314 -53.800079 62.19490814 -58.77612305 59.24780273 C-60.72034528 57.91844515 -60.72034528 57.91844515 -62 58 Z M48.71484375 60.3515625 C47.80250977 60.86678467 46.89017578 61.38200684 45.95019531 61.9128418 C44.95600586 62.477854 43.96181641 63.04286621 42.9375 63.625 C41.92139648 64.20096924 40.90529297 64.77693848 39.85839844 65.37036133 C32.12878007 69.76337293 24.4311288 74.21031154 16.75 78.6875 C15.20687134 79.58686279 15.20687134 79.58686279 13.63256836 80.50439453 C8.25169443 83.64803258 8.25169443 83.64803258 3 87 C2.56085067 89.54352848 2.56085067 89.54352848 2.65942383 92.55126953 C2.65965042 93.71232208 2.65987701 94.87337463 2.66011047 96.0696106 C2.67559433 97.32796722 2.69107819 98.58632385 2.70703125 99.8828125 C2.71127609 101.16735321 2.71552094 102.45189392 2.71989441 103.77536011 C2.7313532 107.19172641 2.76082857 110.60771056 2.79400635 114.02392578 C2.82468538 117.50938751 2.83839506 120.99491094 2.85351562 124.48046875 C2.88569779 131.32046957 2.93690624 138.16021644 3 145 C8.2864959 142.39269378 13.54474564 139.78961029 18.62890625 136.80078125 C19.60279297 136.23037109 20.57667969 135.65996094 21.58007812 135.07226562 C22.56427734 134.49154297 23.54847656 133.91082031 24.5625 133.3125 C25.51962891 132.75111328 26.47675781 132.18972656 27.46289062 131.61132812 C29.49701861 130.41752842 31.51311467 129.19260085 33.51245117 127.94140625 C36.25852358 126.41275607 38.60371022 125.38523359 41.52856445 124.35546875 C46.49592974 122.40615439 50.8373774 120.44802618 54 116 C56.66781003 107.15190191 55.68240962 97.54427212 55.16729736 88.42675781 C54.99206079 84.99591755 54.91548292 81.56294882 54.83007812 78.12890625 C54.64330546 71.41372439 54.35948746 64.70803502 54 58 C52.07655268 58 50.33984187 59.43269668 48.71484375 60.3515625 Z M-80.5 134.375 C-81.97569458 135.26493652 -81.97569458 135.26493652 -83.48120117 136.17285156 C-85.57603269 137.43679442 -87.66335617 138.71325048 -89.74365234 140.00097656 C-94.14735686 142.70434533 -98.61448392 145.29209163 -103.0859375 147.88134766 C-107.04494586 150.17419345 -110.99016251 152.49018567 -114.93481445 154.80761719 C-116.2681015 155.57742141 -117.62297338 156.31148669 -119 157 C-119 157.66 -119 158.32 -119 159 C-118.42894531 159.32049316 -117.85789063 159.64098633 -117.26953125 159.97119141 C-104.65281641 167.05931797 -92.09146766 174.22911067 -79.6328125 181.59228516 C-78.67632812 182.1547998 -77.71984375 182.71731445 -76.734375 183.296875 C-75.89100586 183.79541992 -75.04763672 184.29396484 -74.17871094 184.80761719 C-71.9303661 186.12213007 -71.9303661 186.12213007 -69 187 C-66.51269939 185.98851315 -66.51269939 185.98851315 -63.8359375 184.38671875 C-62.80388184 183.8026123 -61.77182617 183.21850586 -60.70849609 182.61669922 C-59.05841553 181.66174561 -59.05841553 181.66174561 -57.375 180.6875 C-56.25303223 180.04828613 -55.13106445 179.40907227 -53.97509766 178.75048828 C-46.11939851 174.2623202 -38.29826892 169.71284593 -30.5234375 165.0859375 C-27.03996144 163.01368602 -23.52418338 161.00217102 -20 159 C-20 158.34 -20 157.68 -20 157 C-20.66829834 156.6282666 -21.33659668 156.2565332 -22.02514648 155.87353516 C-46.01740595 142.51591622 -46.01740595 142.51591622 -56.51928711 136.19775391 C-57.73414501 135.47142295 -58.95752442 134.75910949 -60.18994141 134.06298828 C-62 133 -62 133 -63.86865234 131.65185547 C-70.4535169 127.37078193 -74.40296979 130.474497 -80.5 134.375 Z M53.4375 133.125 C52.65334717 133.56150879 51.86919434 133.99801758 51.0612793 134.44775391 C41.14041661 140.0002104 31.34465255 145.76845606 21.53759766 151.51855469 C18.37051213 153.36749397 15.18900779 155.18917879 12 157 C12 157.66 12 158.32 12 159 C12.73822998 159.4218457 13.47645996 159.84369141 14.23706055 160.27832031 C15.85775018 161.20442867 17.47840607 162.13059657 19.09849548 163.05775452 C22.2382079 164.85388029 25.38124291 166.6437264 28.53076172 168.42260742 C34.49794044 171.80068952 40.40699873 175.2107321 46.18359375 178.91015625 C47.11018799 179.48797852 48.03678223 180.06580078 48.99145508 180.66113281 C50.70599649 181.73623785 52.40150799 182.84251104 54.07299805 183.98339844 C56.4342398 185.43821294 58.28380559 186.43135994 61 187 C64.79209696 186.06067323 67.74426711 184.10952322 71 182 C72.88495479 180.91652336 74.77308968 179.83856394 76.6640625 178.765625 C78.652696 177.59655956 80.63963141 176.42460155 82.625 175.25 C92.02498938 169.7249598 101.47010757 164.29749902 111 159 C108.12141781 155.89136805 105.26897503 153.80205225 101.58984375 151.71484375 C100.52564209 151.10648682 99.46144043 150.49812988 98.36499023 149.87133789 C97.23391846 149.23317139 96.10284668 148.59500488 94.9375 147.9375 C93.77054918 147.27334694 92.60396647 146.60854667 91.43774414 145.94311523 C89.08746467 144.60256378 86.73560358 143.26484847 84.3828125 141.92871094 C78.73930111 138.71106227 73.13129634 135.43236255 67.52514648 132.15014648 C60.87924321 128.2840736 59.92140378 129.50495275 53.4375 133.125 Z M3 171 C2.60409998 178.38749331 2.30313174 185.77266905 2.11919308 193.16866112 C2.03083641 196.60472137 1.91141866 200.03348004 1.7175293 203.46533203 C0.28030571 217.89000389 0.28030571 217.89000389 4.50491333 231.13299561 C8.40197897 234.60472303 12.88660449 236.4314303 17.76095581 238.15423584 C21.13640891 239.42926081 23.99246333 241.22666457 27.06640625 243.1171875 C29.23135466 244.37051082 31.39671124 245.62312939 33.5625 246.875 C35.20702148 247.83019531 35.20702148 247.83019531 36.88476562 248.8046875 C37.95533203 249.4234375 39.02589844 250.0421875 40.12890625 250.6796875 C41.53765015 251.49542236 41.53765015 251.49542236 42.97485352 252.32763672 C46.59187095 254.32719845 50.30340024 256.15170012 54 258 C54 238.86 54 219.72 54 200 C50.205 197.81375 46.41 195.6275 42.5 193.375 C35.30985534 189.23212683 28.1248617 185.08145617 20.96484375 180.88671875 C19.8665625 180.2436377 18.76828125 179.60055664 17.63671875 178.93798828 C15.52492396 177.69998404 13.41422264 176.46011244 11.3046875 175.21826172 C10.35722656 174.66283691 9.40976562 174.10741211 8.43359375 173.53515625 C7.59884521 173.044104 6.76409668 172.55305176 5.90405273 172.04711914 C4.21612506 170.91968668 4.21612506 170.91968668 3 171 Z M-127 172 C-127 191.14 -127 210.28 -127 230 C-118.75 234.62 -110.5 239.24 -102 244 C-97.48903453 246.60991574 -92.98514875 249.22242588 -88.5 251.875 C-86.4907285 253.06183669 -84.48037839 254.24685001 -82.46875 255.4296875 C-81.62763672 255.92710449 -80.78652344 256.42452148 -79.91992188 256.93701172 C-78.2199482 258.08072945 -78.2199482 258.08072945 -77 258 C-76.60409998 250.61250669 -76.30313174 243.22733095 -76.11919308 235.83133888 C-76.03083641 232.39527863 -75.91141866 228.96651996 -75.7175293 225.53466797 C-74.28159523 211.11196937 -74.28159523 211.11196937 -78.50189209 197.86801147 C-82.39545535 194.39526947 -86.87891499 192.57094817 -91.75125122 190.84899902 C-95.13605672 189.57108991 -98.09927844 187.73548975 -101.171875 185.84765625 C-103.36414094 184.58516898 -105.55684088 183.32343501 -107.75 182.0625 C-109.97418867 180.78295238 -112.19815582 179.50301962 -114.421875 178.22265625 C-115.37674805 177.67359619 -116.33162109 177.12453613 -117.31542969 176.55883789 C-119.13576432 175.50183201 -120.93837398 174.41381066 -122.72363281 173.29858398 C-124.8527482 171.83483108 -124.8527482 171.83483108 -127 172 Z M-19.109375 174.82421875 C-20.17671875 175.44232422 -21.2440625 176.06042969 -22.34375 176.69726562 C-24.02984375 177.68243164 -24.02984375 177.68243164 -25.75 178.6875 C-26.79671875 179.29400391 -27.8434375 179.90050781 -28.921875 180.52539062 C-30.60895104 181.50520778 -32.29543449 182.48711436 -33.95309448 183.51591492 C-37.77885433 185.85856095 -41.58978053 187.68517723 -45.75048828 189.37231445 C-51.89024007 192.06614269 -57.66702533 194.7371806 -62 200 C-65.28489843 208.81850566 -64.1914601 218.5600157 -63.51062012 227.77923584 C-63.28318753 231.18898463 -63.18462023 234.60239247 -63.07421875 238.01757812 C-62.83294661 244.687811 -62.46616428 251.34190363 -62 258 C-60.08581562 257.05038358 -58.17248835 256.09903934 -56.25952148 255.14697266 C-54.661157 254.35258286 -54.661157 254.35258286 -53.03050232 253.54214478 C-49.26979513 251.6284175 -45.68030558 249.54792347 -42.0625 247.375 C-32.10760438 241.47071708 -22.04915968 235.74237696 -12 230 C-12 210.86 -12 191.72 -12 172 C-14.91463774 172 -16.59515015 173.36276622 -19.109375 174.82421875 Z M111.3828125 175.078125 C110.81158661 175.40480164 110.24036072 175.73147827 109.65182495 176.0680542 C108.42833753 176.76892236 107.20605261 177.47189309 105.98486328 178.17675781 C103.60344586 179.55096508 101.21611004 180.91465398 98.82666016 182.27484131 C97.59633617 182.9873145 96.37505711 183.71560186 95.16259766 184.45806885 C91.41169133 186.73457203 87.71770521 188.55595222 83.63671875 190.17871094 C77.99833305 192.61970838 72.81455213 195.03548316 69 200 C65.97651605 208.84492096 67.01208164 218.52493796 67.62670898 227.71057129 C67.83327338 231.12747364 67.92303813 234.54737439 68.0234375 237.96875 C68.2428952 244.65358632 68.57649562 251.32514842 69 258 C95.46678795 245.58611423 95.46678795 245.58611423 119 229 C119.09370624 227.22008076 119.11744271 225.43643261 119.11352539 223.65405273 C119.11344986 222.5129454 119.11337433 221.37183807 119.11329651 220.19615173 C119.10813522 218.9545076 119.10297394 217.71286346 119.09765625 216.43359375 C119.09553383 214.53795433 119.09553383 214.53795433 119.09336853 212.60401917 C119.08870582 209.23875111 119.0797148 205.8735501 119.06866455 202.50830078 C119.05844846 199.0765033 119.05387049 195.64469891 119.04882812 192.21289062 C119.0377738 185.47524176 119.0210171 178.73762475 119 172 C115.9462347 172 114.01764077 173.56653325 111.3828125 175.078125 Z " fill="#000000" transform="translate(288,8)"/>
<path d="M0 0 C17.72367187 -0.51340611 35.34159085 3.32808404 50.90917969 11.78442383 C60.23278485 16.38731372 69.35954759 16.07336973 79.5546875 15.921875 C81.47988067 15.92110045 83.40507844 15.92400541 85.33026123 15.93037415 C90.35685421 15.93988725 95.38239917 15.91155558 100.40881348 15.87121582 C108.46421868 15.80935226 116.51936149 15.79006555 124.57497406 15.80103493 C127.36646151 15.79696713 130.15678143 15.76679439 132.94805908 15.73405457 C148.46747189 15.64959935 159.61744114 19.1197171 171.3515625 29.66015625 C175.86530779 34.31892146 182.2265625 43.43075956 182.2265625 50.16015625 C183.02454758 49.75561218 183.82253265 49.35106812 184.6446991 48.93426514 C192.21433124 45.09908261 199.78890234 41.27386953 207.36899853 37.45940781 C211.26460134 35.49863266 215.1582794 33.53423139 219.04760742 31.56103516 C222.8103046 29.65226071 226.57799033 27.75367645 230.34914589 25.86167145 C231.77761306 25.14286526 233.2043345 24.4205775 234.62914085 23.69454193 C246.31179114 17.74603467 257.89096328 12.34489094 271.2890625 12.66015625 C272.14612793 12.6744165 273.00319336 12.68867676 273.88623047 12.70336914 C284.99278116 13.07135095 293.01264184 15.79728152 301.09375 23.64453125 C308.84905377 32.79181262 310.03101355 42.58755326 309.2265625 54.16015625 C307.64907528 61.82902482 304.37930556 68.24757546 298.2265625 73.16015625 C293.39266562 76.31886792 288.23745351 78.9328024 283.13085938 81.61572266 C279.33506688 83.63423168 275.57830417 85.72033978 271.8210144 87.80944824 C266.85785245 90.56901858 261.88351752 93.30771825 256.90457153 96.03869629 C253.1954058 98.07430897 249.49368791 100.12259051 245.79769897 102.18202209 C242.86384114 103.81163329 239.919291 105.42162317 236.9765625 107.03515625 C235.96352051 107.60451904 234.95047852 108.17388184 233.90673828 108.76049805 C212.72923321 120.27991233 189.77465791 127.00931632 166.675354 133.42132568 C163.7340115 134.24245217 160.79759141 135.08047006 157.86095428 135.91823959 C135.75507901 142.21567503 113.78778121 148.20389993 90.64599609 148.36547852 C89.74720734 148.37537811 88.84841858 148.38527771 87.9223938 148.39547729 C84.98995479 148.42673713 82.05749966 148.45170721 79.125 148.4765625 C77.07662567 148.49716281 75.0282553 148.51816003 72.97988892 148.53953552 C67.61736274 148.59443866 62.25480024 148.64398653 56.89221191 148.69238281 C51.40857758 148.74283135 45.92499526 148.7983949 40.44140625 148.85351562 C29.70316956 148.96070809 18.96488748 149.06223767 8.2265625 149.16015625 C8.54890869 149.93125732 8.87125488 150.7023584 9.20336914 151.49682617 C10.28624383 154.31550428 10.59003717 156.46374432 10.6640625 159.47265625 C10.70402344 160.35566406 10.74398437 161.23867188 10.78515625 162.1484375 C9.3621517 169.82072077 3.30224104 175.53251946 -2.05078125 180.8359375 C-3.08423424 181.87369576 -3.08423424 181.87369576 -4.13856506 182.93241882 C-5.58633428 184.38221648 -7.03784662 185.82828509 -8.49291992 187.27075195 C-10.71174725 189.47346012 -12.91404326 191.6917924 -15.11523438 193.91210938 C-16.53028872 195.32518203 -17.946273 196.73732419 -19.36328125 198.1484375 C-20.0165892 198.80781815 -20.66989716 199.46719879 -21.34300232 200.14656067 C-25.65321528 204.39146157 -29.56738025 207.73435177 -35.7734375 208.55859375 C-36.7634375 208.55085937 -37.7534375 208.543125 -38.7734375 208.53515625 C-39.7634375 208.54289063 -40.7534375 208.550625 -41.7734375 208.55859375 C-47.43951321 207.80606807 -51.34166888 204.96677353 -55.30912781 201.00541687 C-56.16286987 200.16013428 -57.01661194 199.31485168 -57.89622498 198.44395447 C-58.81436478 197.51974197 -59.73250458 196.59552948 -60.6784668 195.64331055 C-61.66892641 194.65691989 -62.66002226 193.67116773 -63.65170288 192.68600464 C-66.33412201 190.01722636 -69.00700736 187.33908842 -71.67784476 184.6587255 C-74.47863383 181.85032311 -77.28675577 179.04926815 -80.09370422 176.24702454 C-84.80559126 171.54059017 -89.51112966 166.82787783 -94.21313477 162.11157227 C-99.64367763 156.66470386 -105.08494333 151.22872701 -110.53190488 145.79828137 C-115.21443281 141.12938219 -119.8910705 136.45464347 -124.56286556 131.77500468 C-127.35043865 128.98276273 -130.1399795 126.19256774 -132.93485069 123.40762901 C-135.56250772 120.78865956 -138.18267624 118.16241842 -140.79732895 115.53046799 C-142.21231415 114.10964585 -143.63466312 112.69616907 -145.05723572 111.28294373 C-146.32515961 110.00233063 -146.32515961 110.00233063 -147.61869812 108.69584656 C-148.35294856 107.96046504 -149.087199 107.22508352 -149.84369946 106.46741772 C-153.41298279 102.19985926 -155.19638599 98.22218063 -155.1484375 92.66015625 C-155.15617187 91.76296875 -155.16390625 90.86578125 -155.171875 89.94140625 C-154.09395128 82.417076 -148.92995793 77.87689704 -143.78125 72.76953125 C-142.60681839 71.59079437 -142.60681839 71.59079437 -141.40866089 70.38824463 C-139.75643308 68.73398071 -138.10043216 67.08347775 -136.44091797 65.43652344 C-133.90368841 62.91537388 -131.38287555 60.37860407 -128.86328125 57.83984375 C-127.25356537 56.23210996 -125.6429193 54.62530684 -124.03125 53.01953125 C-123.27901154 52.26122009 -122.52677307 51.50290894 -121.7517395 50.72161865 C-121.04105316 50.02038879 -120.33036682 49.31915894 -119.59814453 48.59667969 C-118.97876007 47.97968201 -118.35937561 47.36268433 -117.72122192 46.72698975 C-113.28816319 43.16095604 -108.83504022 42.75088975 -103.33984375 42.81640625 C-99.89970897 43.27718534 -97.4459776 44.60314078 -94.5625 46.48046875 C-92.74057511 47.38998605 -92.74057511 47.38998605 -90.73828125 46.46875 C-88.76554961 45.15490289 -87.3170613 43.83522752 -85.7109375 42.09765625 C-63.21813534 19.03300319 -32.46225254 1.87458078 0 0 Z M-76.7734375 55.16015625 C-78.119026 56.81694445 -79.45426528 58.48225869 -80.7734375 60.16015625 C-71.07382816 70.14029369 -61.33946223 80.08536386 -51.56405067 89.99128914 C-47.02592482 94.59205456 -42.49963402 99.20331243 -37.99853516 103.84033203 C-33.65459938 108.31461012 -29.28203154 112.75896455 -24.88804245 117.18407822 C-23.21651918 118.87778261 -21.55559897 120.58201894 -19.9056282 122.29672623 C-17.59267254 124.69675727 -15.24486794 127.05659751 -12.88525391 129.41064453 C-12.21055054 130.12849121 -11.53584717 130.84633789 -10.84069824 131.5859375 C-7.21181763 135.2040433 -7.21181763 135.2040433 -2.37682438 136.13477612 C0.16563809 135.62572553 0.16563809 135.62572553 2.70332336 134.86062241 C6.67248625 133.75875924 10.56323618 133.87601225 14.6574707 133.88891602 C15.98431633 133.8810759 15.98431633 133.8810759 17.33796692 133.87307739 C19.24209657 133.86290973 21.14625344 133.85706976 23.05040932 133.855196 C26.08575092 133.85149121 29.12077753 133.83464883 32.15605164 133.81443787 C40.78081327 133.75945043 49.40562169 133.72857012 58.03051758 133.70385742 C63.32659659 133.68777779 68.62245428 133.65734517 73.91841698 133.61909294 C75.91340939 133.6076129 77.90844174 133.60151412 79.90346718 133.60141182 C97.35754175 133.60019325 114.53728146 132.21884112 131.3984375 127.43359375 C132.33500183 127.17879242 133.27156616 126.92399109 134.23651123 126.66146851 C137.23698622 125.84079014 140.23175038 125.00124069 143.2265625 124.16015625 C145.35465606 123.57265635 147.48291481 122.98575449 149.61132812 122.39941406 C155.12694624 120.87258404 160.6326656 119.31307586 166.13476562 117.73828125 C168.36831454 117.10124334 170.60336011 116.46943044 172.83984375 115.84277344 C208.0129642 105.984882 239.30749383 88.90980219 270.9765625 71.03515625 C271.89767822 70.51542236 272.81879395 69.99568848 273.76782227 69.46020508 C286.39329975 63.14936611 286.39329975 63.14936611 294.2265625 52.16015625 C294.950803 45.47577263 294.54798442 39.54697028 290.2265625 34.16015625 C284.48130145 29.51308394 279.18141659 27.93815131 271.8515625 27.78515625 C270.54445313 27.73617188 269.23734375 27.6871875 267.890625 27.63671875 C256.3542774 28.28186069 244.479719 35.75609629 234.2578125 40.8046875 C233.15973518 41.34549233 233.15973518 41.34549233 232.03947449 41.89722252 C228.17885249 43.7994581 224.32188517 45.70887834 220.46777344 47.62426758 C216.50852365 49.58999391 212.53687127 51.52920677 208.56195831 53.46301746 C205.48156301 54.96769503 202.41117353 56.49197209 199.34312439 58.02164268 C197.88284415 58.74543305 196.41889306 59.46186928 194.95118713 60.17048073 C184.7689275 64.81907589 184.7689275 64.81907589 178.10144043 73.45487976 C176.13462085 77.28852453 172.11658278 78.86348282 168.2265625 80.16015625 C166.82459392 80.25246223 165.41867234 80.29071074 164.01367188 80.29386902 C162.72662354 80.30026649 162.72662354 80.30026649 161.41357422 80.30679321 C160.00615967 80.30611343 160.00615967 80.30611343 158.5703125 80.30541992 C157.5798291 80.30877853 156.5893457 80.31213715 155.56884766 80.31559753 C152.28807326 80.32511254 149.00734985 80.3270508 145.7265625 80.328125 C143.45117166 80.33133672 141.17578103 80.33470073 138.90039062 80.33821106 C134.12890138 80.34420337 129.35743025 80.34605081 124.5859375 80.34545898 C118.46223257 80.34535725 112.3386433 80.35902089 106.21496582 80.37623119 C101.51561953 80.38733049 96.81630141 80.38937885 92.11694336 80.38884926 C89.85863852 80.39003207 87.600333 80.39447057 85.34204102 80.40218163 C82.18888149 80.4119416 79.03597581 80.40911948 75.8828125 80.40307617 C74.94453613 80.40869568 74.00625977 80.41431519 73.03955078 80.42010498 C72.18151855 80.41591049 71.32348633 80.411716 70.43945312 80.40739441 C69.32117126 80.40821156 69.32117126 80.40821156 68.18029785 80.40904522 C66.2265625 80.16015625 66.2265625 80.16015625 63.2265625 78.16015625 C62.33094135 74.99103527 61.93741037 72.98312771 63.0390625 69.84765625 C64.2265625 68.16015625 64.2265625 68.16015625 66.2265625 67.16015625 C69.32265337 67.05274635 72.39720006 67.00597358 75.49389648 67.00244141 C76.45497314 66.99736069 77.4160498 66.99227997 78.40625 66.98704529 C80.49773173 66.97632786 82.58922502 66.96771309 84.68072319 66.96092606 C87.98765496 66.94916541 91.29445446 66.92972082 94.60133362 66.9078064 C104.00509262 66.84608816 113.40883821 66.79208605 122.81274414 66.75878906 C128.55988506 66.73788873 134.30678535 66.70262366 140.05378914 66.65803146 C142.24786618 66.64383486 144.4419858 66.63514082 146.63610649 66.63197708 C149.70093996 66.62708949 152.76513034 66.60398752 155.82983398 66.57666016 C156.74162918 66.57966629 157.65342438 66.58267242 158.59284973 66.58576965 C159.42708466 66.57467667 160.26131958 66.56358368 161.12083435 66.55215454 C161.84553138 66.54884439 162.5702284 66.54553425 163.31688595 66.54212379 C165.83473778 66.03851093 166.70594666 65.20769956 168.2265625 63.16015625 C169.39630369 54.97196792 166.67911529 48.99120946 162.2265625 42.16015625 C155.68985417 34.36638862 147.09149683 31.33458198 137.2265625 30.16015625 C134.43571458 30.08660905 131.67233691 30.0562628 128.88305664 30.08178711 C127.2168026 30.08789954 125.55054787 30.09382667 123.8842926 30.09959412 C122.57231997 30.10660245 122.57231997 30.10660245 121.23384285 30.11375237 C116.54845702 30.13311207 111.86313258 30.11769512 107.17773438 30.10742188 C101.23987588 30.09522128 95.30273579 30.09330579 89.36499023 30.13598633 C84.54535645 30.16970128 79.72713213 30.16370414 74.90749931 30.13241768 C73.08696179 30.1275439 71.26632451 30.13652449 69.44594002 30.16062737 C57.98667741 30.30336377 49.65246083 28.93657923 39.67967224 23.10816956 C-1.17801544 0.05899788 -47.59791327 26.16528542 -76.7734375 55.16015625 Z M-111.1809082 61.01831055 C-112.14629265 61.95509895 -112.14629265 61.95509895 -113.13117981 62.91081238 C-113.81363266 63.59508804 -114.49608551 64.27936371 -115.19921875 64.984375 C-115.90620407 65.68279007 -116.61318939 66.38120514 -117.34159851 67.1007843 C-118.83349761 68.581194 -120.32017794 70.0668787 -121.80200195 71.55737305 C-124.07732038 73.83901518 -126.37796788 76.09273629 -128.68164062 78.34570312 C-130.12662007 79.78613706 -131.57003411 81.22814341 -133.01171875 82.671875 C-133.70429276 83.34602951 -134.39686676 84.02018402 -135.11042786 84.71476746 C-135.73825668 85.35505386 -136.36608551 85.99534027 -137.01293945 86.6550293 C-137.57157181 87.2124028 -138.13020416 87.76977631 -138.70576477 88.34403992 C-140.00119733 90.14805381 -140.00119733 90.14805381 -139.57810879 92.50313473 C-138.60741534 95.7083608 -137.32136464 97.12010396 -134.96636963 99.48861694 C-134.14763367 100.32152252 -133.32889771 101.1544281 -132.48535156 102.01257324 C-131.58042969 102.91254028 -130.67550781 103.81250732 -129.74316406 104.73974609 C-128.7848061 105.70680104 -127.82728672 106.67468764 -126.87054443 107.64334106 C-124.27244539 110.26820732 -121.66169357 112.88013127 -119.04765034 115.48910856 C-116.8669739 117.66764563 -114.69227947 119.85210611 -112.51747108 122.03649867 C-107.38840145 127.18775221 -102.24875471 132.32828247 -97.10253906 137.46240234 C-91.7903302 142.76251721 -86.49676999 148.08075137 -81.21193337 153.40814817 C-76.67489322 157.98038005 -72.12636653 162.54095655 -67.56843925 167.09236681 C-64.8457402 169.81143481 -62.12771123 172.53479485 -59.42072296 175.26951218 C-56.87636214 177.83895731 -54.31800082 180.39357351 -51.74802399 182.93738937 C-50.35652193 184.3218783 -48.97985837 185.72123061 -47.6036377 187.12091064 C-46.35861481 188.34489059 -46.35861481 188.34489059 -45.08843994 189.59359741 C-44.01327307 190.66926751 -44.01327307 190.66926751 -42.91638565 191.76666832 C-40.82585438 193.43400364 -40.82585438 193.43400364 -38.11530495 192.96203423 C-35.55118699 192.08405554 -34.26710007 191.17048145 -32.34423828 189.28027344 C-31.72074493 188.67584412 -31.09725159 188.07141479 -30.4548645 187.44866943 C-29.47173782 186.46280853 -29.47173782 186.46280853 -28.46875 185.45703125 C-27.44368851 184.44482513 -27.44368851 184.44482513 -26.3979187 183.41217041 C-24.95908441 181.98480626 -23.52544155 180.55219246 -22.09667969 179.11474609 C-19.9026506 176.91438152 -17.68328966 174.74202257 -15.4609375 172.5703125 C-14.06608881 171.18000834 -12.6728042 169.78813285 -11.28125 168.39453125 C-10.61368683 167.74538757 -9.94612366 167.0962439 -9.2583313 166.4274292 C-8.65375092 165.81039124 -8.04917053 165.19335327 -7.42626953 164.55761719 C-6.88841827 164.02102478 -6.35056702 163.48443237 -5.79641724 162.93157959 C-4.54896197 161.16085799 -4.54896197 161.16085799 -4.97113895 158.81955051 C-5.93979999 155.60871133 -7.22476696 154.20586431 -9.5872345 151.83842468 C-10.40741562 151.00696426 -11.22759674 150.17550385 -12.07263184 149.31884766 C-12.97912476 148.42045166 -13.88561768 147.52205566 -14.81958008 146.59643555 C-15.77957433 145.63101955 -16.7387159 144.66475502 -17.69706726 143.69770813 C-20.29944893 141.07709903 -22.91431553 138.46929107 -25.53215623 135.8641355 C-28.26959184 133.13682758 -30.99725385 130.39977311 -33.72648621 127.66426086 C-38.31023976 123.07323148 -42.90236021 118.49069781 -47.49926758 113.9128418 C-52.81626937 108.61762154 -58.11868988 103.30812723 -63.41379052 97.99101323 C-67.95935255 93.42731088 -72.51264891 88.87143544 -77.07252425 84.32203418 C-79.79648054 81.60431866 -82.5176509 78.88396175 -85.2318821 76.15653038 C-87.78294894 73.59392514 -90.34357087 71.04127208 -92.91195869 68.49603081 C-94.30385442 67.11196293 -95.68589671 65.7180081 -97.06765747 64.32382202 C-97.89629807 63.50646072 -98.72493866 62.68909943 -99.57868958 61.8469696 C-100.29638928 61.130778 -101.01408899 60.41458639 -101.75353718 59.67669201 C-105.58135188 56.80277897 -108.12933444 58.01671736 -111.1809082 61.01831055 Z " fill="#000000" transform="translate(178.7734375,295.83984375)"/>
<path d="M0 0 C3.03867369 3.11278768 4.23525136 5.72940527 4.5625 10 C4.33883752 14.6611261 2.26749147 16.81030594 -1 20 C-4.46250243 21.73125121 -8.21408229 21.47815224 -12 21 C-15.60507053 18.85229841 -17.4320516 16.84604383 -19 13 C-19.32878184 9.17106143 -19.12658893 5.43353382 -16.6953125 2.33984375 C-11.10555083 -2.42953002 -6.59716082 -2.58408646 0 0 Z " fill="#000000" transform="translate(143,441)"/>
</svg>
