<?xml version="1.0" encoding="UTF-8"?>
<svg version="1.1" xmlns="http://www.w3.org/2000/svg" width="512" height="512">
<path d="M0 0 C0.7090448 0.00379166 1.4180896 0.00758331 2.14862061 0.01148987 C14.57245007 0.10228552 26.9919816 0.50582846 39.40930176 0.89480591 C43.83530956 1.03195525 48.25977978 1.13424626 52.6875 1.203125 C54.46356397 1.24782044 56.23960861 1.29329632 58.015625 1.33984375 C58.78422852 1.34169678 59.55283203 1.3435498 60.34472656 1.34545898 C63.9871257 1.47072445 65.93953536 2.03753842 68.96484375 4.1171875 C71.63095405 7.98177786 71.79118664 10.8096747 71.828125 15.40234375 C71.85326172 16.14291016 71.87839844 16.88347656 71.90429688 17.64648438 C71.96280943 19.46037344 71.99216849 21.27516278 72.015625 23.08984375 C72.90121094 22.703125 73.78679687 22.31640625 74.69921875 21.91796875 C81.6699967 18.95688818 88.56715311 16.49084318 95.953125 14.77734375 C96.63753662 14.6184668 97.32194824 14.45958984 98.02709961 14.29589844 C125.50479992 8.23929016 151.64822282 14.06980152 176.43286133 26.52368164 C186.54439201 31.5459136 196.23581734 34.07414093 207.57080078 34.35522461 C208.82966095 34.3887352 210.08852112 34.42224579 211.38552856 34.45677185 C212.04902439 34.47263273 212.71252022 34.48849361 213.39612198 34.50483513 C215.50070251 34.55564758 217.60505481 34.61230559 219.70944214 34.67054749 C225.68889674 34.83521069 231.66855175 34.99123387 237.6484375 35.1394043 C241.32015708 35.23079185 244.99158581 35.33036023 248.66296005 35.43466377 C250.04767744 35.47240599 251.4324808 35.50713895 252.81735611 35.53855705 C272.62620752 35.98953568 289.49354843 38.88307127 304.1875 53.20703125 C307.38545622 56.70892545 309.30594602 59.65324273 311.015625 64.08984375 C311.86753418 63.68894531 312.71944336 63.28804688 313.59716797 62.875 C314.16938583 62.60573196 314.7416037 62.33646393 315.3311615 62.05903625 C316.64285112 61.44174794 317.95450542 60.82438457 319.26612854 60.20695496 C323.00611973 58.44654792 326.74676306 56.68754782 330.48852539 54.9309082 C337.71411023 51.53705799 344.93558367 48.13593195 352.13366699 44.68405151 C355.17462183 43.22632484 358.21869872 41.7751843 361.26300049 40.32446289 C362.70772607 39.63372599 364.15092338 38.93978222 365.59246826 38.24243164 C381.33895094 30.62801957 395.55415417 25.74123966 412.875 31.703125 C421.59668604 35.55411822 429.29239274 41.71417413 434.015625 50.08984375 C435.20635779 53.19141915 435.24254622 54.62929509 435.015625 58.08984375 C431.14339809 63.87428147 426.01153754 66.95121352 420.140625 70.52734375 C418.1593219 71.76037908 416.1788806 72.99480008 414.19921875 74.23046875 C413.17940918 74.86404297 412.15959961 75.49761719 411.10888672 76.15039062 C406.09683253 79.292913 401.15048164 82.53427018 396.203125 85.77734375 C394.27747462 87.03665848 392.35169587 88.29577693 390.42578125 89.5546875 C389.50941895 90.15394043 388.59305664 90.75319336 387.64892578 91.37060547 C381.79355335 95.19348074 375.91789185 98.98505263 370.04394531 102.77929688 C366.53329704 105.04761174 363.02458387 107.31891673 359.515625 109.58984375 C358.09896706 110.5065239 356.68230041 111.42319059 355.265625 112.33984375 C354.564375 112.79359375 353.863125 113.24734375 353.140625 113.71484375 C345.34895833 118.75651042 337.55729167 123.79817708 329.765625 128.83984375 C329.06453613 129.29351318 328.36344727 129.74718262 327.64111328 130.21459961 C326.22290632 131.13221503 324.80461188 132.04969527 323.38623047 132.96704102 C319.86740446 135.24309743 316.35007716 137.52140115 312.8359375 139.8046875 C309.31503753 142.09177483 305.78743787 144.36827853 302.25732422 146.64111328 C300.70679416 147.6431657 299.15911967 148.64964547 297.61376953 149.65966797 C277.20666712 162.99672027 258.40093547 170.21904531 233.765625 170.40234375 C232.51265625 170.43134766 231.2596875 170.46035156 229.96875 170.49023438 C208.55988489 170.63165472 187.72741141 162.76299766 167.32397461 156.95196533 C163.40770874 155.83759795 159.48993244 154.72857063 155.57226562 153.61914062 C154.02723053 153.18124858 152.48219675 152.74335187 150.93716431 152.30545044 C147.90079117 151.4450922 144.86394642 150.58642657 141.82675171 149.72897339 C135.06888817 147.81924265 128.31860773 145.89205516 121.58642578 143.89306641 C120.45612442 143.56252762 119.32582306 143.23198883 118.16127014 142.89143372 C116.11785345 142.29305271 114.0775866 141.68373158 112.04173279 141.06010437 C102.40313991 138.26259434 93.24064968 137.84767912 84.015625 142.08984375 C83.05922119 142.52562744 83.05922119 142.52562744 82.08349609 142.97021484 C79.86899793 144.00679915 77.69231089 145.10121837 75.515625 146.21484375 C74.79608643 146.55636475 74.07654785 146.89788574 73.33520508 147.24975586 C71.23425461 148.38138531 69.6497642 149.34549711 68.015625 151.08984375 C67.34788175 153.46813622 67.16857995 155.53311654 67.15991211 157.99951172 C66.93596219 161.24394355 65.28033101 162.8937652 63.015625 165.08984375 C52.64794938 170.27368156 31.02164349 165.84053559 19.73022461 165.51000977 C17.10937548 165.43769578 14.48824452 165.37500936 11.86694336 165.3215332 C8.04701426 165.24253945 4.22909317 165.13242397 0.41015625 165.015625 C-0.76064987 164.99768387 -1.93145599 164.97974274 -3.13774109 164.96125793 C-7.77251743 164.792474 -11.10600847 164.55615013 -15.23388672 162.36474609 C-18.10234013 156.99829784 -17.55222852 151.74772533 -17.38671875 145.765625 C-17.36467244 144.32915432 -17.3445592 142.89265296 -17.32615662 141.45613098 C-17.26370437 137.28325841 -17.16360547 133.11194088 -17.05617523 128.94001007 C-16.98050369 125.93616906 -16.91268095 122.93222614 -16.84649658 119.92816162 C-16.50656965 104.61542434 -16.0895424 89.30533459 -15.65197754 73.99511719 C-15.51068568 68.99722538 -15.37532534 63.99917969 -15.23996067 59.00112438 C-15.10778652 54.14442343 -14.97230819 49.28781903 -14.83579826 44.43123817 C-14.7715049 42.13295326 -14.70811552 39.83464286 -14.64569283 37.53630638 C-14.48137129 31.5262218 -14.30130507 25.51737624 -14.07512283 19.50927353 C-14.01844584 17.99820696 -13.96559984 16.48698607 -13.91852951 14.97558975 C-13.86135363 13.2659033 -13.77592883 11.55721941 -13.68725586 9.84887695 C-13.62785072 8.57074883 -13.62785072 8.57074883 -13.56724548 7.26679993 C-12.77791999 4.31875733 -11.28119831 3.03789549 -8.984375 1.08984375 C-6.00489197 -0.39989776 -3.32171758 -0.0196002 0 0 Z M4.015625 18.08984375 C3.61937044 30.77487387 3.22790625 43.4600426 2.84217072 56.14539719 C2.66281909 62.0388983 2.48195996 67.93234425 2.29736328 73.82568359 C1.5331331 98.25600584 0.80213577 122.6453272 1.015625 147.08984375 C25.270625 147.58484375 25.270625 147.58484375 50.015625 148.08984375 C50.55159172 129.40730383 50.55159172 129.40730383 51.08203125 110.72460938 C51.2976109 103.08857322 51.51379443 95.45255798 51.73388672 87.81665039 C51.91157486 81.65048023 52.08629423 75.48423203 52.25907898 69.31792259 C52.32502145 66.98236357 52.39197796 64.64683291 52.46003723 62.31133461 C52.87921167 47.89937954 53.10574632 33.50800364 53.015625 19.08984375 C48.44823431 18.94490293 43.88078948 18.80217377 39.31323242 18.66259766 C37.76665723 18.61492212 36.22010637 18.5664487 34.67358398 18.51708984 C32.42177529 18.44537153 30.16988798 18.37674331 27.91796875 18.30859375 C27.25167953 18.28671997 26.58539032 18.26484619 25.89891052 18.24230957 C18.60574035 18.02744695 11.3111893 18.07094187 4.015625 18.08984375 Z M80.015625 39.08984375 C79.18288559 39.42893265 78.35014618 39.76802155 77.49217224 40.11738586 C74.57057651 41.52180301 72.36821228 42.84787273 70.015625 45.08984375 C68.499116 49.42400939 68.57235963 53.61620724 68.6015625 58.17578125 C68.57131989 59.46433014 68.54107727 60.75287903 68.50991821 62.08047485 C68.43023925 65.51414424 68.40986383 68.94570408 68.40185547 72.38018799 C68.38351785 75.78410936 68.30831651 79.18666537 68.23828125 82.58984375 C68.0894117 90.42300167 68.03771105 98.25538923 68.015625 106.08984375 C68.01212036 107.31884399 68.00861572 108.54784424 68.00500488 109.81408691 C67.99012857 116.57274136 67.99198368 123.33121449 68.015625 130.08984375 C69.60358887 129.31435181 69.60358887 129.31435181 71.22363281 128.52319336 C84.97867007 121.83449761 96.37252755 119.02088435 111.68237305 122.76733398 C112.41707416 122.94398559 113.15177526 123.12063719 113.90874004 123.30264187 C122.95185487 125.51253673 131.8973468 128.07012062 140.84765625 130.625 C142.70022387 131.15056564 144.55290265 131.67573962 146.40568542 132.20054626 C151.23344616 133.56887531 156.06001421 134.94135916 160.88623047 136.31512451 C168.62413667 138.51721703 176.36354078 140.71402441 184.10358238 142.90859795 C186.7804055 143.66841096 189.4565015 144.43074248 192.13252258 145.19337463 C209.32494336 150.42361059 209.32494336 150.42361059 227.015625 153.08984375 C227.78519531 153.14269531 228.55476562 153.19554687 229.34765625 153.25 C254.12074336 154.12523964 272.98363603 144.6828732 292.94628906 131.1484375 C298.01651636 127.74785234 303.1745434 124.48710688 308.328125 121.21484375 C317.0938832 115.62404138 325.81906056 109.97485792 334.515625 104.27734375 C335.61422852 103.55764404 336.71283203 102.83794434 337.84472656 102.09643555 C339.95361772 100.71468776 342.06250463 99.3329335 344.17138672 97.95117188 C355.83366766 90.31913497 367.57531401 82.81219885 379.3203125 75.30834961 C390.26520475 68.306592 401.14671974 61.2088761 412.015625 54.08984375 C411.34769925 51.00517171 411.34769925 51.00517171 409.08203125 49.921875 C402.13282771 47.09232411 395.89458492 45.44027438 388.57348633 47.91552734 C378.77698634 52.09132026 369.18334765 56.68228705 359.578125 61.27734375 C357.78984306 62.13023581 356.00143099 62.98285508 354.21289062 63.83520508 C350.72208853 65.49928841 347.23200929 67.16487075 343.74267578 68.83203125 C338.7370156 71.22355632 333.72813586 73.60825669 328.71850586 75.99145508 C325.15003364 77.68914663 321.5827561 79.3893364 318.015625 81.08984375 C317.97824219 82.13785156 317.94085938 83.18585938 317.90234375 84.265625 C317.83667985 85.6445668 317.77023265 87.02347146 317.703125 88.40234375 C317.66928711 89.4377832 317.66928711 89.4377832 317.63476562 90.49414062 C317.36109797 95.64406825 317.36109797 95.64406825 315.7142334 97.76907349 C309.45553376 102.63558915 296.66778361 100.02298352 289.046875 99.78515625 C287.48296507 99.74077811 285.91904046 99.69691458 284.35510254 99.65353394 C280.24150071 99.53787268 276.1281642 99.41449233 272.01483154 99.28967285 C268.72803132 99.19126229 265.44108374 99.09849345 262.15411377 99.00595474 C254.2704448 98.78399959 246.38731641 98.54864647 238.50457764 98.29574966 C235.00529609 98.18350617 231.50602106 98.07384772 228.00634766 97.9744873 C224.47785568 97.87309517 220.94991235 97.76052394 217.421875 97.64453125 C216.4071814 97.61795441 215.39248779 97.59137756 214.3470459 97.56399536 C213.42621216 97.5311142 212.50537842 97.49823303 211.55664062 97.46435547 C210.76890259 97.44009491 209.98116455 97.41583435 209.16955566 97.39083862 C206.73892634 97.05117729 205.09751228 96.37921794 203.015625 95.08984375 C201.42792028 91.91443431 201.60462198 88.54793816 202.015625 85.08984375 C203.55900591 82.91507974 204.65227773 82.27151738 207.015625 81.08984375 C209.33909066 81.00368263 211.66521227 80.986266 213.99023438 81 C214.70057579 81.00379166 215.41091721 81.00758331 216.14278412 81.01148987 C224.57148617 81.0729615 232.99643754 81.29698341 241.421875 81.52734375 C243.12536137 81.57236783 244.82885269 81.61720471 246.53234863 81.66186523 C250.95779423 81.77837832 255.38316907 81.89738779 259.80853271 82.01696777 C264.34757458 82.13916054 268.88668055 82.25892256 273.42578125 82.37890625 C282.28912587 82.61354412 291.15239746 82.85082673 300.015625 83.08984375 C299.39756173 81.31893891 298.77292262 79.55032816 298.14550781 77.78271484 C297.79836731 76.79757904 297.45122681 75.81244324 297.09356689 74.79745483 C293.96344823 66.9351164 286.58362953 60.62340612 279.015625 57.08984375 C270.5110912 53.99083098 262.22833951 53.57948657 253.25 53.4296875 C251.8443047 53.39534171 250.43864408 53.35954991 249.03302002 53.32240295 C245.35658012 53.22800383 241.67999463 53.14828836 238.00311279 53.07330322 C232.13579617 52.95278468 226.26894155 52.81643672 220.40229034 52.66714668 C218.38275653 52.61886707 216.36297212 52.5814468 214.34320068 52.54441833 C194.2478263 52.06444449 177.79165124 47.55172671 159.80786133 38.69360352 C152.36200385 35.09419393 145.13014531 32.70059123 137.015625 31.08984375 C136.08492188 30.90035156 135.15421875 30.71085937 134.1953125 30.515625 C115.50677815 28.01310627 97.07382509 31.21361643 80.015625 39.08984375 Z " fill="#000000" transform="translate(47.984375,341.91015625)"/>
<path d="M0 0 C33.43398873 -0.90256073 64.06798695 11.680884 88.8984375 33.71875 C111.20100921 55.0999904 125.22057878 84.67584243 126.296875 115.6328125 C127.03274407 152.04300067 116.17264077 182.43362969 91.015625 209.16015625 C90.42652344 209.8253125 89.83742188 210.49046875 89.23046875 211.17578125 C69.08020345 232.96463955 37.42175977 243.93262319 8.453125 245.44140625 C-24.58405932 246.48865274 -55.48199743 234.7787986 -79.65234375 212.359375 C-80.80669922 211.27076172 -80.80669922 211.27076172 -81.984375 210.16015625 C-82.66113281 209.54785156 -83.33789062 208.93554688 -84.03515625 208.3046875 C-99.5740821 193.69996561 -109.39274721 173.46242481 -114.984375 153.16015625 C-115.3246875 151.93683594 -115.665 150.71351563 -116.015625 149.453125 C-120.19375024 131.28988613 -119.85433434 110.18429923 -114.984375 92.16015625 C-114.79101562 91.4424707 -114.59765625 90.72478516 -114.3984375 89.98535156 C-105.67626162 58.9058699 -84.99272082 32.26838562 -56.984375 16.16015625 C-39.22214158 6.24124613 -20.25998374 1.08725044 0 0 Z M-75.51074219 54.48388672 C-96.08646151 77.88893789 -101.77611096 106.7947111 -99.984375 137.16015625 C-99.31962871 143.06084488 -97.86927524 148.54068731 -95.984375 154.16015625 C-95.77538574 154.79131348 -95.56639648 155.4224707 -95.35107422 156.07275391 C-86.71910829 181.49017567 -68.82884171 202.53692302 -45.36328125 215.53515625 C-19.41784309 228.01296235 9.49103705 231.67666748 37.0546875 222.20996094 C49.9557676 217.50903648 61.64069419 211.21969405 72.015625 202.16015625 C72.675625 201.64324219 73.335625 201.12632812 74.015625 200.59375 C93.05957196 185.27412331 104.93265382 160.04874485 108.015625 136.16015625 C110.05903678 107.15916526 104.37247935 80.25248598 85.7578125 57.38671875 C83.57149466 54.91092329 81.31636443 52.52951423 79.015625 50.16015625 C78.34273437 49.41378906 77.66984375 48.66742188 76.9765625 47.8984375 C59.88975763 29.56371992 33.73844494 18.91805475 8.89453125 17.95703125 C-24.20739242 17.35795321 -53.08226358 30.08959323 -75.51074219 54.48388672 Z " fill="#000000" transform="translate(257.984375,110.83984375)"/>
<path d="M0 0 C2.43119623 1.87015094 3.64069173 3.28138345 5 6 C5.06996014 7.70702735 5.08440154 9.41668003 5.0625 11.125 C5.05347656 12.03507813 5.04445313 12.94515625 5.03515625 13.8828125 C5.02355469 14.58148438 5.01195312 15.28015625 5 16 C5.61746094 16.13535156 6.23492187 16.27070313 6.87109375 16.41015625 C16.69854581 18.90815396 23.5019296 24.0059509 28.78125 32.6875 C32.51507551 39.77219455 34.32373107 46.96851629 33 55 C31 58.1875 31 58.1875 28 60 C24.97339064 60.65926144 23.19152723 60.45593246 20 60 C16.07759067 57.02266393 15.36610348 54.38011577 14.5625 49.625 C13.3649982 43.9128524 12.43125714 40.8269948 8 37 C3.13678541 34.24723703 -1.45363128 33.04919393 -7 34 C-12.18452655 35.75650626 -16.25561612 38.1445516 -19 43 C-21.02640288 48.8372501 -21.61362258 53.5631226 -18.9765625 59.25 C-16.52226941 63.64809323 -14.17841033 66.52078713 -9.375 68.39453125 C-6.17048946 69.21147061 -2.97366219 69.51391968 0.3125 69.875 C10.00584276 71.04241147 18.41841939 74.58164141 25 82 C32.20848405 92.2050825 34.15433525 101.63654336 33 114 C31.20723629 123.66167286 25.50491042 130.67326229 17.8828125 136.6640625 C13.77484422 139.39737991 9.79542935 140.90104744 5 142 C5.02320313 142.67546875 5.04640625 143.3509375 5.0703125 144.046875 C5.08835937 144.93890625 5.10640625 145.8309375 5.125 146.75 C5.14820313 147.63171875 5.17140625 148.5134375 5.1953125 149.421875 C4.98637114 152.17990095 4.51063339 153.69903523 3 156 C-0.69308217 158.46205478 -3.71316878 158.57042512 -8 158 C-11.23613354 156.25746655 -11.82395315 155.52814056 -13 152 C-13.0685495 150.10529184 -13.08480372 148.2083166 -13.0625 146.3125 C-13.05347656 145.31863281 -13.04445312 144.32476562 -13.03515625 143.30078125 C-13.02355469 142.54152344 -13.01195312 141.78226563 -13 141 C-14.11375 140.82210937 -14.11375 140.82210937 -15.25 140.640625 C-24.52697298 138.47951198 -30.56803264 130.9009756 -35.66796875 123.37890625 C-38.41943207 118.46500255 -39.30941672 113.97581173 -39.375 108.375 C-39.40335938 107.26898438 -39.43171875 106.16296875 -39.4609375 105.0234375 C-39 102 -39 102 -37.2578125 99.6328125 C-34.74267043 97.81390353 -33.56679473 97.45798911 -30.5 97.5 C-29.7471875 97.4896875 -28.994375 97.479375 -28.21875 97.46875 C-25.08230827 98.21972901 -23.94911949 99.45018204 -22 102 C-21.09375 105.05859375 -21.09375 105.05859375 -20.5 108.4375 C-19.4912469 114.16482843 -17.93083259 117.85113325 -13.140625 121.36328125 C-8.3694006 123.75875135 -4.33274147 125.02314226 1 124 C6.20121723 122.22513208 10.19769665 119.85014042 13 115 C15.26932729 109.20813482 15.28423408 104.78231598 12.98046875 99.0078125 C10.36109419 93.64383433 7.42516582 91.32507106 2 89 C-0.36367001 88.64357357 -2.74214814 88.3772175 -5.125 88.1875 C-15.19907269 87.00756432 -25.11978329 82.98220112 -31.6953125 74.921875 C-38.51617257 64.56013129 -40.53445831 55.31619937 -39 43 C-36.20012371 32.20731446 -30.46896835 25.05872605 -21.19140625 19.15625 C-18.48915938 17.73046556 -16.04590737 17.15620038 -13 17 C-13.05220703 15.89591797 -13.05220703 15.89591797 -13.10546875 14.76953125 C-13.37928318 4.8991729 -13.37928318 4.8991729 -10 1 C-6.80766515 -0.59616743 -3.46538503 -0.51466114 0 0 Z " fill="#000000" transform="translate(265,154)"/>
<path d="M0 0 C3.23613354 1.74253345 3.82395315 2.47185944 5 6 C5.1116467 8.69616646 5.16765939 11.36716691 5.17700195 14.06396484 C5.18357315 14.88542496 5.19014435 15.70688507 5.19691467 16.55323792 C5.21663064 19.27247204 5.22830526 21.99165103 5.23828125 24.7109375 C5.24235678 25.63971333 5.2464323 26.56848915 5.25063133 27.5254097 C5.27148285 32.43946358 5.28578965 37.35348959 5.29516602 42.26757812 C5.3062404 47.34421875 5.34065474 52.42042226 5.38033772 57.49690819 C5.40647007 61.40026672 5.41485474 65.30352045 5.41844749 69.20695877 C5.42332067 71.07846663 5.4349554 72.94996959 5.45348549 74.82139206 C5.47780969 77.44036405 5.47692466 80.05819594 5.4699707 82.67724609 C5.48278076 83.44936935 5.49559082 84.22149261 5.50878906 85.01701355 C5.47289535 88.72713223 5.12422694 90.80706378 3.09562683 93.95767212 C0.59794652 96.39182788 -0.3496765 96.92774183 -3.8125 97.3125 C-7.7307645 96.92835642 -9.21293267 95.70743683 -12 93 C-13.57056206 89.85887589 -13.15618816 86.49871969 -13.16113281 83.04956055 C-13.16609772 82.22824646 -13.17106262 81.40693237 -13.17617798 80.56072998 C-13.19081612 77.83605113 -13.1976047 75.11143051 -13.203125 72.38671875 C-13.20887555 70.49583433 -13.21463329 68.60494993 -13.22039795 66.71406555 C-13.23091295 62.74532804 -13.2367522 58.77661082 -13.24023438 54.80786133 C-13.24571701 49.72342484 -13.26973802 44.63925643 -13.29820633 39.55490398 C-13.31683533 35.64725463 -13.32203847 31.73966977 -13.32357025 27.83197975 C-13.32659724 25.95769601 -13.33462732 24.08341341 -13.34775543 22.2091732 C-13.36481975 19.58544955 -13.3629347 16.96237975 -13.35644531 14.33862305 C-13.3656601 13.56492874 -13.37487488 12.79123444 -13.3843689 11.99409485 C-13.34950094 7.49133683 -12.80491951 4.57253643 -10 1 C-6.81496713 -0.59251643 -3.4667595 -0.39129761 0 0 Z " fill="#000000" transform="translate(266,0)"/>
<path d="M0 0 C3.23613354 1.74253345 3.82395315 2.47185944 5 6 C5.10515522 7.40012898 5.15837929 8.80454738 5.17700195 10.20849609 C5.18983719 11.05302338 5.20267242 11.89755066 5.21589661 12.76766968 C5.22328354 13.67707306 5.23067047 14.58647644 5.23828125 15.5234375 C5.246353 16.46176422 5.25442474 17.40009094 5.26274109 18.36685181 C5.27656972 20.35229653 5.28729733 22.3377649 5.29516602 24.32324219 C5.31239536 27.35657768 5.35629418 30.38882774 5.40039062 33.421875 C5.41051647 35.35155449 5.41903291 37.28124324 5.42578125 39.2109375 C5.44328934 40.11629242 5.46079742 41.02164734 5.47883606 41.95443726 C5.46434887 46.16769155 5.37371289 48.40073514 3.09838867 52.04931641 C0.53428065 54.43293747 -0.36890082 54.95884136 -3.875 55.1875 C-6.96075154 55.00235491 -8.51023567 54.77840309 -11 53 C-12.7423964 50.11962847 -13.25942004 47.93151374 -13.30639648 44.58618164 C-13.32238388 43.72170914 -13.33837128 42.85723663 -13.35484314 41.96656799 C-13.36020584 41.04045212 -13.36556854 40.11433624 -13.37109375 39.16015625 C-13.38012222 38.20104843 -13.3891507 37.24194061 -13.39845276 36.25376892 C-13.41294662 34.22723509 -13.42183985 32.20065455 -13.42553711 30.17407227 C-13.43744489 27.07683506 -13.48664855 23.98158317 -13.53710938 20.88476562 C-13.54657264 18.91407221 -13.55380814 16.94336658 -13.55859375 14.97265625 C-13.57812607 14.04856461 -13.59765839 13.12447296 -13.61778259 12.17237854 C-13.58566034 7.58677341 -13.49667022 5.6376608 -10.59619141 1.91381836 C-6.62672225 -1.01233067 -4.83228821 -0.6136239 0 0 Z " fill="#000000" transform="translate(329,42)"/>
<path d="M0 0 C3.23613354 1.74253345 3.82395315 2.47185944 5 6 C5.10515522 7.40012898 5.15837929 8.80454738 5.17700195 10.20849609 C5.18983719 11.05302338 5.20267242 11.89755066 5.21589661 12.76766968 C5.22328354 13.67707306 5.23067047 14.58647644 5.23828125 15.5234375 C5.246353 16.46176422 5.25442474 17.40009094 5.26274109 18.36685181 C5.27656972 20.35229653 5.28729733 22.3377649 5.29516602 24.32324219 C5.31239536 27.35657768 5.35629418 30.38882774 5.40039062 33.421875 C5.41051647 35.35155449 5.41903291 37.28124324 5.42578125 39.2109375 C5.44328934 40.11629242 5.46079742 41.02164734 5.47883606 41.95443726 C5.46434887 46.16769155 5.37371289 48.40073514 3.09838867 52.04931641 C0.59129435 54.37993695 -0.40684313 54.93409368 -3.8125 55.3125 C-7.7307645 54.92835642 -9.21293267 53.70743683 -12 51 C-13.13811789 48.72376422 -13.1379334 47.43415898 -13.16113281 44.9050293 C-13.17074036 44.06042648 -13.1803479 43.21582367 -13.19024658 42.34562683 C-13.19449646 41.43106216 -13.19874634 40.5164975 -13.203125 39.57421875 C-13.20882507 38.63447708 -13.21452515 37.69473541 -13.22039795 36.72651672 C-13.22985474 34.73508838 -13.23638462 32.74364434 -13.24023438 30.75219727 C-13.24992776 27.71016987 -13.28093972 24.66882151 -13.3125 21.62695312 C-13.31903125 19.69271235 -13.32428124 17.75846673 -13.328125 15.82421875 C-13.3404718 14.91572678 -13.3528186 14.0072348 -13.36553955 13.07121277 C-13.34856856 8.24157139 -13.20522397 4.89240604 -10 1 C-6.81496713 -0.59251643 -3.4667595 -0.39129761 0 0 Z " fill="#000000" transform="translate(203,42)"/>
</svg>
